<mxfile host="app.diagrams.net" modified="2023-01-26T17:36:31.534Z" agent="5.0 (Windows NT 10.0; Win64; x64) AppleWebKit/537.36 (KHTML, like Gecko) Chrome/109.0.0.0 Safari/537.36" etag="gCXFTSSevxsymcI-XpO_" version="20.8.11" type="github" pages="5">
  <diagram name="Fase I" id="71mr0Q3XpzNladmsMgAE">
    <mxGraphModel dx="1050" dy="491" grid="1" gridSize="10" guides="1" tooltips="1" connect="1" arrows="1" fold="1" page="1" pageScale="1" pageWidth="827" pageHeight="1169" math="0" shadow="0">
      <root>
        <mxCell id="0" />
        <mxCell id="1" parent="0" />
        <mxCell id="txRc-1PFV7r14aSmkzdP-11" value="DNN" style="whiteSpace=wrap;html=1;fillColor=none;verticalAlign=top;labelPosition=center;verticalLabelPosition=bottom;align=center;" vertex="1" parent="1">
          <mxGeometry x="460" y="200" width="150" height="340" as="geometry" />
        </mxCell>
        <mxCell id="txRc-1PFV7r14aSmkzdP-1" value="DNN+SKEDA" style="whiteSpace=wrap;html=1;fillColor=none;verticalAlign=top;labelPosition=center;verticalLabelPosition=bottom;align=center;" vertex="1" parent="1">
          <mxGeometry x="90" y="200" width="370" height="340" as="geometry" />
        </mxCell>
        <mxCell id="txRc-1PFV7r14aSmkzdP-3" value="www.isbn.it" style="sketch=0;pointerEvents=1;shadow=0;dashed=0;html=1;strokeColor=none;fillColor=#505050;labelPosition=center;verticalLabelPosition=bottom;verticalAlign=top;outlineConnect=0;align=center;shape=mxgraph.office.sites.website;" vertex="1" parent="1">
          <mxGeometry x="520" y="220" width="30" height="30" as="geometry" />
        </mxCell>
        <mxCell id="txRc-1PFV7r14aSmkzdP-4" value="www.aie.it" style="sketch=0;pointerEvents=1;shadow=0;dashed=0;html=1;strokeColor=none;fillColor=#505050;labelPosition=center;verticalLabelPosition=bottom;verticalAlign=top;outlineConnect=0;align=center;shape=mxgraph.office.sites.website;" vertex="1" parent="1">
          <mxGeometry x="440" y="280" width="40" height="30" as="geometry" />
        </mxCell>
        <mxCell id="txRc-1PFV7r14aSmkzdP-7" value="network.aie.it" style="sketch=0;pointerEvents=1;shadow=0;dashed=0;html=1;strokeColor=none;fillColor=#505050;labelPosition=center;verticalLabelPosition=bottom;verticalAlign=top;outlineConnect=0;align=center;shape=mxgraph.office.sites.site_team;" vertex="1" parent="1">
          <mxGeometry x="440" y="350" width="40" height="30" as="geometry" />
        </mxCell>
        <mxCell id="txRc-1PFV7r14aSmkzdP-9" value="users.aie.it" style="sketch=0;pointerEvents=1;shadow=0;dashed=0;html=1;strokeColor=none;fillColor=#505050;labelPosition=center;verticalLabelPosition=bottom;verticalAlign=top;outlineConnect=0;align=center;shape=mxgraph.office.sites.site_team;" vertex="1" parent="1">
          <mxGeometry x="440" y="410" width="40" height="30" as="geometry" />
        </mxCell>
        <mxCell id="txRc-1PFV7r14aSmkzdP-10" value="config.aie.it" style="sketch=0;pointerEvents=1;shadow=0;dashed=0;html=1;strokeColor=none;fillColor=#505050;labelPosition=center;verticalLabelPosition=bottom;verticalAlign=top;outlineConnect=0;align=center;shape=mxgraph.office.sites.site_team;" vertex="1" parent="1">
          <mxGeometry x="440" y="470" width="40" height="30" as="geometry" />
        </mxCell>
        <mxCell id="txRc-1PFV7r14aSmkzdP-13" value="SOCI" style="shape=image;html=1;verticalAlign=top;verticalLabelPosition=bottom;labelBackgroundColor=#ffffff;imageAspect=0;aspect=fixed;image=https://cdn1.iconfinder.com/data/icons/ionicons-fill-vol-2/512/logo-web-component-128.png;fillStyle=solid;fillColor=none;" vertex="1" parent="1">
          <mxGeometry x="270" y="330" width="40" height="40" as="geometry" />
        </mxCell>
        <mxCell id="txRc-1PFV7r14aSmkzdP-58" style="edgeStyle=orthogonalEdgeStyle;rounded=0;orthogonalLoop=1;jettySize=auto;html=1;exitX=0;exitY=0.5;exitDx=0;exitDy=0;" edge="1" parent="1" source="txRc-1PFV7r14aSmkzdP-14" target="txRc-1PFV7r14aSmkzdP-33">
          <mxGeometry relative="1" as="geometry">
            <Array as="points">
              <mxPoint x="120" y="330" />
            </Array>
          </mxGeometry>
        </mxCell>
        <mxCell id="txRc-1PFV7r14aSmkzdP-59" value="News" style="edgeLabel;html=1;align=center;verticalAlign=middle;resizable=0;points=[];" vertex="1" connectable="0" parent="txRc-1PFV7r14aSmkzdP-58">
          <mxGeometry x="0.5533" y="1" relative="1" as="geometry">
            <mxPoint as="offset" />
          </mxGeometry>
        </mxCell>
        <mxCell id="txRc-1PFV7r14aSmkzdP-14" value="NEWS" style="shape=image;html=1;verticalAlign=top;verticalLabelPosition=bottom;labelBackgroundColor=#ffffff;imageAspect=0;aspect=fixed;image=https://cdn1.iconfinder.com/data/icons/ionicons-fill-vol-2/512/logo-web-component-128.png;fillStyle=solid;fillColor=none;" vertex="1" parent="1">
          <mxGeometry x="122.25" y="310" width="40" height="40" as="geometry" />
        </mxCell>
        <mxCell id="txRc-1PFV7r14aSmkzdP-54" style="edgeStyle=none;rounded=0;orthogonalLoop=1;jettySize=auto;html=1;" edge="1" parent="1" source="txRc-1PFV7r14aSmkzdP-17" target="txRc-1PFV7r14aSmkzdP-32">
          <mxGeometry relative="1" as="geometry" />
        </mxCell>
        <mxCell id="txRc-1PFV7r14aSmkzdP-55" value="Avvenuto &lt;br&gt;Pagamento" style="edgeLabel;html=1;align=center;verticalAlign=middle;resizable=0;points=[];" vertex="1" connectable="0" parent="txRc-1PFV7r14aSmkzdP-54">
          <mxGeometry x="0.2353" relative="1" as="geometry">
            <mxPoint as="offset" />
          </mxGeometry>
        </mxCell>
        <mxCell id="txRc-1PFV7r14aSmkzdP-61" style="edgeStyle=orthogonalEdgeStyle;rounded=0;orthogonalLoop=1;jettySize=auto;html=1;" edge="1" parent="1" source="txRc-1PFV7r14aSmkzdP-17" target="txRc-1PFV7r14aSmkzdP-60">
          <mxGeometry relative="1" as="geometry" />
        </mxCell>
        <mxCell id="txRc-1PFV7r14aSmkzdP-17" value="ECOMMERCE" style="shape=image;html=1;verticalAlign=top;verticalLabelPosition=bottom;labelBackgroundColor=#ffffff;imageAspect=0;aspect=fixed;image=https://cdn1.iconfinder.com/data/icons/ionicons-fill-vol-2/512/logo-web-component-128.png;fillStyle=solid;fillColor=none;" vertex="1" parent="1">
          <mxGeometry x="190" y="450" width="40" height="40" as="geometry" />
        </mxCell>
        <mxCell id="txRc-1PFV7r14aSmkzdP-18" value="ACCOUNT" style="shape=image;html=1;verticalAlign=top;verticalLabelPosition=bottom;labelBackgroundColor=#ffffff;imageAspect=0;aspect=fixed;image=https://cdn1.iconfinder.com/data/icons/ionicons-fill-vol-2/512/logo-web-component-128.png;fillStyle=solid;fillColor=none;" vertex="1" parent="1">
          <mxGeometry x="270" y="260" width="40" height="40" as="geometry" />
        </mxCell>
        <mxCell id="txRc-1PFV7r14aSmkzdP-19" value="NOTE SPESA" style="shape=image;html=1;verticalAlign=top;verticalLabelPosition=bottom;labelBackgroundColor=#ffffff;imageAspect=0;aspect=fixed;image=https://cdn1.iconfinder.com/data/icons/ionicons-fill-vol-2/512/logo-web-component-128.png;fillStyle=solid;fillColor=none;" vertex="1" parent="1">
          <mxGeometry x="319" y="410" width="40" height="40" as="geometry" />
        </mxCell>
        <mxCell id="txRc-1PFV7r14aSmkzdP-48" style="edgeStyle=none;rounded=0;orthogonalLoop=1;jettySize=auto;html=1;" edge="1" parent="1" source="txRc-1PFV7r14aSmkzdP-27" target="txRc-1PFV7r14aSmkzdP-1">
          <mxGeometry relative="1" as="geometry" />
        </mxCell>
        <mxCell id="txRc-1PFV7r14aSmkzdP-49" style="edgeStyle=none;rounded=0;orthogonalLoop=1;jettySize=auto;html=1;entryX=1;entryY=0.5;entryDx=0;entryDy=0;" edge="1" parent="1" source="txRc-1PFV7r14aSmkzdP-27" target="txRc-1PFV7r14aSmkzdP-13">
          <mxGeometry relative="1" as="geometry" />
        </mxCell>
        <mxCell id="txRc-1PFV7r14aSmkzdP-27" value="ACCREDITO" style="shape=providedRequiredInterface;html=1;verticalLabelPosition=bottom;sketch=0;fillStyle=solid;fillColor=none;rotation=0;" vertex="1" parent="1">
          <mxGeometry x="414" y="190" width="20" height="20" as="geometry" />
        </mxCell>
        <mxCell id="txRc-1PFV7r14aSmkzdP-47" style="edgeStyle=none;rounded=0;orthogonalLoop=1;jettySize=auto;html=1;" edge="1" parent="1" source="txRc-1PFV7r14aSmkzdP-28" target="txRc-1PFV7r14aSmkzdP-18">
          <mxGeometry relative="1" as="geometry" />
        </mxCell>
        <mxCell id="txRc-1PFV7r14aSmkzdP-28" value="LOGIN" style="shape=providedRequiredInterface;html=1;verticalLabelPosition=bottom;sketch=0;fillStyle=solid;fillColor=none;rotation=0;" vertex="1" parent="1">
          <mxGeometry x="280" y="190" width="20" height="20" as="geometry" />
        </mxCell>
        <mxCell id="txRc-1PFV7r14aSmkzdP-50" style="edgeStyle=none;rounded=0;orthogonalLoop=1;jettySize=auto;html=1;entryX=1;entryY=0.25;entryDx=0;entryDy=0;" edge="1" parent="1" source="txRc-1PFV7r14aSmkzdP-29" target="txRc-1PFV7r14aSmkzdP-13">
          <mxGeometry relative="1" as="geometry" />
        </mxCell>
        <mxCell id="txRc-1PFV7r14aSmkzdP-29" value="CATALOGO" style="shape=providedRequiredInterface;html=1;verticalLabelPosition=bottom;sketch=0;fillStyle=solid;fillColor=none;rotation=0;" vertex="1" parent="1">
          <mxGeometry x="339" y="190" width="20" height="20" as="geometry" />
        </mxCell>
        <mxCell id="txRc-1PFV7r14aSmkzdP-40" style="rounded=0;orthogonalLoop=1;jettySize=auto;html=1;" edge="1" parent="1" source="txRc-1PFV7r14aSmkzdP-30" target="txRc-1PFV7r14aSmkzdP-27">
          <mxGeometry relative="1" as="geometry" />
        </mxCell>
        <mxCell id="txRc-1PFV7r14aSmkzdP-41" style="edgeStyle=none;rounded=0;orthogonalLoop=1;jettySize=auto;html=1;" edge="1" parent="1" source="txRc-1PFV7r14aSmkzdP-30" target="txRc-1PFV7r14aSmkzdP-28">
          <mxGeometry relative="1" as="geometry" />
        </mxCell>
        <mxCell id="txRc-1PFV7r14aSmkzdP-42" style="edgeStyle=none;rounded=0;orthogonalLoop=1;jettySize=auto;html=1;" edge="1" parent="1" source="txRc-1PFV7r14aSmkzdP-30" target="txRc-1PFV7r14aSmkzdP-29">
          <mxGeometry relative="1" as="geometry" />
        </mxCell>
        <mxCell id="txRc-1PFV7r14aSmkzdP-30" value="PLPL" style="outlineConnect=0;dashed=0;verticalLabelPosition=bottom;verticalAlign=top;align=center;html=1;shape=mxgraph.aws3.direct_connect;fillColor=#F58536;gradientColor=none;fillStyle=solid;" vertex="1" parent="1">
          <mxGeometry x="331.63" y="90" width="34.75" height="43.5" as="geometry" />
        </mxCell>
        <mxCell id="txRc-1PFV7r14aSmkzdP-43" style="edgeStyle=none;rounded=0;orthogonalLoop=1;jettySize=auto;html=1;entryX=0.653;entryY=0.073;entryDx=0;entryDy=0;entryPerimeter=0;" edge="1" parent="1" source="txRc-1PFV7r14aSmkzdP-31" target="txRc-1PFV7r14aSmkzdP-28">
          <mxGeometry relative="1" as="geometry" />
        </mxCell>
        <mxCell id="txRc-1PFV7r14aSmkzdP-44" style="edgeStyle=none;rounded=0;orthogonalLoop=1;jettySize=auto;html=1;" edge="1" parent="1" source="txRc-1PFV7r14aSmkzdP-31" target="txRc-1PFV7r14aSmkzdP-36">
          <mxGeometry relative="1" as="geometry" />
        </mxCell>
        <mxCell id="txRc-1PFV7r14aSmkzdP-45" style="edgeStyle=none;rounded=0;orthogonalLoop=1;jettySize=auto;html=1;entryX=0.821;entryY=0.073;entryDx=0;entryDy=0;entryPerimeter=0;" edge="1" parent="1" source="txRc-1PFV7r14aSmkzdP-31" target="txRc-1PFV7r14aSmkzdP-37">
          <mxGeometry relative="1" as="geometry" />
        </mxCell>
        <mxCell id="txRc-1PFV7r14aSmkzdP-31" value="GDL" style="outlineConnect=0;dashed=0;verticalLabelPosition=bottom;verticalAlign=top;align=center;html=1;shape=mxgraph.aws3.service_catalog;fillColor=#759C3E;gradientColor=none;fillStyle=solid;" vertex="1" parent="1">
          <mxGeometry x="215.63" y="85.13" width="41.75" height="53.25" as="geometry" />
        </mxCell>
        <mxCell id="txRc-1PFV7r14aSmkzdP-32" value="ISBN" style="outlineConnect=0;dashed=0;verticalLabelPosition=bottom;verticalAlign=top;align=center;html=1;shape=mxgraph.aws3.device_farm;fillColor=#AD688B;gradientColor=none;fillStyle=solid;" vertex="1" parent="1">
          <mxGeometry x="117.25" y="577.5" width="50" height="45" as="geometry" />
        </mxCell>
        <mxCell id="txRc-1PFV7r14aSmkzdP-33" value="MAGNEWS" style="outlineConnect=0;dashed=0;verticalLabelPosition=bottom;verticalAlign=top;align=center;html=1;shape=mxgraph.aws3.snowball;fillColor=#E05243;gradientColor=none;fillStyle=solid;" vertex="1" parent="1">
          <mxGeometry x="97" y="85.13" width="45.25" height="45.5" as="geometry" />
        </mxCell>
        <mxCell id="txRc-1PFV7r14aSmkzdP-46" style="edgeStyle=none;rounded=0;orthogonalLoop=1;jettySize=auto;html=1;" edge="1" parent="1" source="txRc-1PFV7r14aSmkzdP-34" target="txRc-1PFV7r14aSmkzdP-38">
          <mxGeometry relative="1" as="geometry" />
        </mxCell>
        <mxCell id="txRc-1PFV7r14aSmkzdP-34" value="INFINITY" style="outlineConnect=0;dashed=0;verticalLabelPosition=bottom;verticalAlign=top;align=center;html=1;shape=mxgraph.aws3.opsworks;fillColor=#759C3E;gradientColor=none;fillStyle=solid;" vertex="1" parent="1">
          <mxGeometry x="394" y="580" width="40" height="40" as="geometry" />
        </mxCell>
        <mxCell id="txRc-1PFV7r14aSmkzdP-51" style="edgeStyle=none;rounded=0;orthogonalLoop=1;jettySize=auto;html=1;entryX=0;entryY=0.5;entryDx=0;entryDy=0;" edge="1" parent="1" source="txRc-1PFV7r14aSmkzdP-36" target="txRc-1PFV7r14aSmkzdP-13">
          <mxGeometry relative="1" as="geometry" />
        </mxCell>
        <mxCell id="txRc-1PFV7r14aSmkzdP-36" value="FUORI&lt;br&gt;CATALOGO" style="shape=providedRequiredInterface;html=1;verticalLabelPosition=bottom;sketch=0;fillStyle=solid;fillColor=none;rotation=0;" vertex="1" parent="1">
          <mxGeometry x="226.51" y="190" width="20" height="20" as="geometry" />
        </mxCell>
        <mxCell id="txRc-1PFV7r14aSmkzdP-52" style="edgeStyle=none;rounded=0;orthogonalLoop=1;jettySize=auto;html=1;" edge="1" parent="1" source="txRc-1PFV7r14aSmkzdP-37" target="txRc-1PFV7r14aSmkzdP-14">
          <mxGeometry relative="1" as="geometry" />
        </mxCell>
        <mxCell id="txRc-1PFV7r14aSmkzdP-37" value="NEWSLETTER" style="shape=providedRequiredInterface;html=1;verticalLabelPosition=bottom;sketch=0;fillStyle=solid;fillColor=none;rotation=0;" vertex="1" parent="1">
          <mxGeometry x="150" y="190" width="20" height="20" as="geometry" />
        </mxCell>
        <mxCell id="txRc-1PFV7r14aSmkzdP-53" style="edgeStyle=none;rounded=0;orthogonalLoop=1;jettySize=auto;html=1;entryX=1;entryY=0.5;entryDx=0;entryDy=0;" edge="1" parent="1" source="txRc-1PFV7r14aSmkzdP-38" target="txRc-1PFV7r14aSmkzdP-17">
          <mxGeometry relative="1" as="geometry" />
        </mxCell>
        <mxCell id="txRc-1PFV7r14aSmkzdP-38" value="WS &lt;br&gt;ORDINE" style="shape=providedRequiredInterface;html=1;verticalLabelPosition=top;sketch=0;fillStyle=solid;fillColor=none;rotation=0;labelPosition=center;align=center;verticalAlign=bottom;" vertex="1" parent="1">
          <mxGeometry x="359" y="530" width="20" height="20" as="geometry" />
        </mxCell>
        <mxCell id="txRc-1PFV7r14aSmkzdP-56" style="rounded=0;orthogonalLoop=1;jettySize=auto;html=1;entryX=0;entryY=0.5;entryDx=0;entryDy=0;entryPerimeter=0;edgeStyle=elbowEdgeStyle;" edge="1" parent="1" target="txRc-1PFV7r14aSmkzdP-34">
          <mxGeometry relative="1" as="geometry">
            <mxPoint x="210" y="490" as="sourcePoint" />
            <mxPoint x="196.63461538461536" y="705" as="targetPoint" />
            <Array as="points">
              <mxPoint x="210" y="540" />
            </Array>
          </mxGeometry>
        </mxCell>
        <mxCell id="txRc-1PFV7r14aSmkzdP-57" value="Avvenuto &lt;br&gt;Pagamento" style="edgeLabel;html=1;align=center;verticalAlign=middle;resizable=0;points=[];" vertex="1" connectable="0" parent="txRc-1PFV7r14aSmkzdP-56">
          <mxGeometry x="0.2353" relative="1" as="geometry">
            <mxPoint as="offset" />
          </mxGeometry>
        </mxCell>
        <mxCell id="txRc-1PFV7r14aSmkzdP-60" value="Banca Sella" style="outlineConnect=0;dashed=0;verticalLabelPosition=bottom;verticalAlign=top;align=center;html=1;shape=mxgraph.aws3.cart;fillColor=#5294CF;gradientColor=none;fillStyle=solid;" vertex="1" parent="1">
          <mxGeometry x="10" y="90.69" width="50" height="42.12" as="geometry" />
        </mxCell>
        <mxCell id="txRc-1PFV7r14aSmkzdP-62" value="MEDRA" style="whiteSpace=wrap;html=1;aspect=fixed;fillStyle=solid;fillColor=none;labelPosition=center;verticalLabelPosition=bottom;align=center;verticalAlign=top;" vertex="1" parent="1">
          <mxGeometry x="650" y="310" width="151" height="151" as="geometry" />
        </mxCell>
        <mxCell id="txRc-1PFV7r14aSmkzdP-64" style="edgeStyle=none;rounded=0;orthogonalLoop=1;jettySize=auto;html=1;exitX=0;exitY=0.5;exitDx=0;exitDy=0;exitPerimeter=0;" edge="1" parent="1" source="txRc-1PFV7r14aSmkzdP-36" target="txRc-1PFV7r14aSmkzdP-36">
          <mxGeometry relative="1" as="geometry" />
        </mxCell>
      </root>
    </mxGraphModel>
  </diagram>
  <diagram name="Fase II" id="dn82kCbX6hzQw2Z08eEs">
    <mxGraphModel dx="1050" dy="491" grid="1" gridSize="10" guides="1" tooltips="1" connect="1" arrows="1" fold="1" page="1" pageScale="1" pageWidth="827" pageHeight="1169" math="0" shadow="0">
      <root>
        <mxCell id="vRTZqej8DlHhRuhV1Er2-0" />
        <mxCell id="vRTZqej8DlHhRuhV1Er2-1" parent="vRTZqej8DlHhRuhV1Er2-0" />
        <mxCell id="vRTZqej8DlHhRuhV1Er2-2" value="DNN" style="whiteSpace=wrap;html=1;fillColor=none;verticalAlign=top;labelPosition=center;verticalLabelPosition=bottom;align=center;" vertex="1" parent="vRTZqej8DlHhRuhV1Er2-1">
          <mxGeometry x="460" y="200" width="150" height="340" as="geometry" />
        </mxCell>
        <mxCell id="vRTZqej8DlHhRuhV1Er2-3" value="DNN+SKEDA" style="whiteSpace=wrap;html=1;fillColor=none;verticalAlign=top;labelPosition=center;verticalLabelPosition=bottom;align=center;" vertex="1" parent="vRTZqej8DlHhRuhV1Er2-1">
          <mxGeometry x="90" y="200" width="370" height="340" as="geometry" />
        </mxCell>
        <mxCell id="vRTZqej8DlHhRuhV1Er2-4" value="www.isbn.it" style="sketch=0;pointerEvents=1;shadow=0;dashed=0;html=1;strokeColor=none;fillColor=#505050;labelPosition=center;verticalLabelPosition=bottom;verticalAlign=top;outlineConnect=0;align=center;shape=mxgraph.office.sites.website;" vertex="1" parent="vRTZqej8DlHhRuhV1Er2-1">
          <mxGeometry x="670" y="60" width="30" height="30" as="geometry" />
        </mxCell>
        <mxCell id="vRTZqej8DlHhRuhV1Er2-5" value="www.aie.it" style="sketch=0;pointerEvents=1;shadow=0;dashed=0;html=1;strokeColor=none;fillColor=#505050;labelPosition=center;verticalLabelPosition=bottom;verticalAlign=top;outlineConnect=0;align=center;shape=mxgraph.office.sites.website;" vertex="1" parent="vRTZqej8DlHhRuhV1Er2-1">
          <mxGeometry x="720" y="120" width="40" height="30" as="geometry" />
        </mxCell>
        <mxCell id="vRTZqej8DlHhRuhV1Er2-6" value="network.aie.it" style="sketch=0;pointerEvents=1;shadow=0;dashed=0;html=1;strokeColor=none;fillColor=#505050;labelPosition=center;verticalLabelPosition=bottom;verticalAlign=top;outlineConnect=0;align=center;shape=mxgraph.office.sites.site_team;" vertex="1" parent="vRTZqej8DlHhRuhV1Er2-1">
          <mxGeometry x="440" y="350" width="40" height="30" as="geometry" />
        </mxCell>
        <mxCell id="vRTZqej8DlHhRuhV1Er2-7" value="users.aie.it" style="sketch=0;pointerEvents=1;shadow=0;dashed=0;html=1;strokeColor=none;fillColor=#505050;labelPosition=center;verticalLabelPosition=bottom;verticalAlign=top;outlineConnect=0;align=center;shape=mxgraph.office.sites.site_team;" vertex="1" parent="vRTZqej8DlHhRuhV1Er2-1">
          <mxGeometry x="440" y="410" width="40" height="30" as="geometry" />
        </mxCell>
        <mxCell id="vRTZqej8DlHhRuhV1Er2-8" value="config.aie.it" style="sketch=0;pointerEvents=1;shadow=0;dashed=0;html=1;strokeColor=none;fillColor=#505050;labelPosition=center;verticalLabelPosition=bottom;verticalAlign=top;outlineConnect=0;align=center;shape=mxgraph.office.sites.site_team;" vertex="1" parent="vRTZqej8DlHhRuhV1Er2-1">
          <mxGeometry x="440" y="470" width="40" height="30" as="geometry" />
        </mxCell>
        <mxCell id="vRTZqej8DlHhRuhV1Er2-9" value="SOCI" style="shape=image;html=1;verticalAlign=top;verticalLabelPosition=bottom;labelBackgroundColor=#ffffff;imageAspect=0;aspect=fixed;image=https://cdn1.iconfinder.com/data/icons/ionicons-fill-vol-2/512/logo-web-component-128.png;fillStyle=solid;fillColor=none;" vertex="1" parent="vRTZqej8DlHhRuhV1Er2-1">
          <mxGeometry x="270" y="330" width="40" height="40" as="geometry" />
        </mxCell>
        <mxCell id="vRTZqej8DlHhRuhV1Er2-10" style="edgeStyle=orthogonalEdgeStyle;rounded=0;orthogonalLoop=1;jettySize=auto;html=1;exitX=0;exitY=0.5;exitDx=0;exitDy=0;" edge="1" parent="vRTZqej8DlHhRuhV1Er2-1" source="vRTZqej8DlHhRuhV1Er2-12" target="vRTZqej8DlHhRuhV1Er2-35">
          <mxGeometry relative="1" as="geometry">
            <Array as="points">
              <mxPoint x="120" y="330" />
            </Array>
          </mxGeometry>
        </mxCell>
        <mxCell id="vRTZqej8DlHhRuhV1Er2-11" value="News" style="edgeLabel;html=1;align=center;verticalAlign=middle;resizable=0;points=[];" vertex="1" connectable="0" parent="vRTZqej8DlHhRuhV1Er2-10">
          <mxGeometry x="0.5533" y="1" relative="1" as="geometry">
            <mxPoint as="offset" />
          </mxGeometry>
        </mxCell>
        <mxCell id="vRTZqej8DlHhRuhV1Er2-12" value="NEWS" style="shape=image;html=1;verticalAlign=top;verticalLabelPosition=bottom;labelBackgroundColor=#ffffff;imageAspect=0;aspect=fixed;image=https://cdn1.iconfinder.com/data/icons/ionicons-fill-vol-2/512/logo-web-component-128.png;fillStyle=solid;fillColor=none;" vertex="1" parent="vRTZqej8DlHhRuhV1Er2-1">
          <mxGeometry x="122.25" y="310" width="40" height="40" as="geometry" />
        </mxCell>
        <mxCell id="vRTZqej8DlHhRuhV1Er2-13" style="edgeStyle=none;rounded=0;orthogonalLoop=1;jettySize=auto;html=1;" edge="1" parent="vRTZqej8DlHhRuhV1Er2-1" source="vRTZqej8DlHhRuhV1Er2-16" target="vRTZqej8DlHhRuhV1Er2-34">
          <mxGeometry relative="1" as="geometry" />
        </mxCell>
        <mxCell id="vRTZqej8DlHhRuhV1Er2-14" value="Avvenuto &lt;br&gt;Pagamento" style="edgeLabel;html=1;align=center;verticalAlign=middle;resizable=0;points=[];" vertex="1" connectable="0" parent="vRTZqej8DlHhRuhV1Er2-13">
          <mxGeometry x="0.2353" relative="1" as="geometry">
            <mxPoint as="offset" />
          </mxGeometry>
        </mxCell>
        <mxCell id="vRTZqej8DlHhRuhV1Er2-15" style="edgeStyle=orthogonalEdgeStyle;rounded=0;orthogonalLoop=1;jettySize=auto;html=1;" edge="1" parent="vRTZqej8DlHhRuhV1Er2-1" source="vRTZqej8DlHhRuhV1Er2-16" target="vRTZqej8DlHhRuhV1Er2-46">
          <mxGeometry relative="1" as="geometry" />
        </mxCell>
        <mxCell id="vRTZqej8DlHhRuhV1Er2-16" value="ECOMMERCE" style="shape=image;html=1;verticalAlign=top;verticalLabelPosition=bottom;labelBackgroundColor=#ffffff;imageAspect=0;aspect=fixed;image=https://cdn1.iconfinder.com/data/icons/ionicons-fill-vol-2/512/logo-web-component-128.png;fillStyle=solid;fillColor=none;" vertex="1" parent="vRTZqej8DlHhRuhV1Er2-1">
          <mxGeometry x="190" y="450" width="40" height="40" as="geometry" />
        </mxCell>
        <mxCell id="vRTZqej8DlHhRuhV1Er2-17" value="ACCOUNT" style="shape=image;html=1;verticalAlign=top;verticalLabelPosition=bottom;labelBackgroundColor=#ffffff;imageAspect=0;aspect=fixed;image=https://cdn1.iconfinder.com/data/icons/ionicons-fill-vol-2/512/logo-web-component-128.png;fillStyle=solid;fillColor=none;" vertex="1" parent="vRTZqej8DlHhRuhV1Er2-1">
          <mxGeometry x="270" y="260" width="40" height="40" as="geometry" />
        </mxCell>
        <mxCell id="vRTZqej8DlHhRuhV1Er2-18" value="NOTE SPESA" style="shape=image;html=1;verticalAlign=top;verticalLabelPosition=bottom;labelBackgroundColor=#ffffff;imageAspect=0;aspect=fixed;image=https://cdn1.iconfinder.com/data/icons/ionicons-fill-vol-2/512/logo-web-component-128.png;fillStyle=solid;fillColor=none;" vertex="1" parent="vRTZqej8DlHhRuhV1Er2-1">
          <mxGeometry x="319" y="410" width="40" height="40" as="geometry" />
        </mxCell>
        <mxCell id="vRTZqej8DlHhRuhV1Er2-19" style="edgeStyle=none;rounded=0;orthogonalLoop=1;jettySize=auto;html=1;" edge="1" parent="vRTZqej8DlHhRuhV1Er2-1" source="vRTZqej8DlHhRuhV1Er2-21" target="vRTZqej8DlHhRuhV1Er2-3">
          <mxGeometry relative="1" as="geometry" />
        </mxCell>
        <mxCell id="vRTZqej8DlHhRuhV1Er2-20" style="edgeStyle=none;rounded=0;orthogonalLoop=1;jettySize=auto;html=1;entryX=1;entryY=0.5;entryDx=0;entryDy=0;" edge="1" parent="vRTZqej8DlHhRuhV1Er2-1" source="vRTZqej8DlHhRuhV1Er2-21" target="vRTZqej8DlHhRuhV1Er2-9">
          <mxGeometry relative="1" as="geometry" />
        </mxCell>
        <mxCell id="vRTZqej8DlHhRuhV1Er2-21" value="ACCREDITO" style="shape=providedRequiredInterface;html=1;verticalLabelPosition=bottom;sketch=0;fillStyle=solid;fillColor=none;rotation=0;" vertex="1" parent="vRTZqej8DlHhRuhV1Er2-1">
          <mxGeometry x="414" y="190" width="20" height="20" as="geometry" />
        </mxCell>
        <mxCell id="vRTZqej8DlHhRuhV1Er2-22" style="edgeStyle=none;rounded=0;orthogonalLoop=1;jettySize=auto;html=1;" edge="1" parent="vRTZqej8DlHhRuhV1Er2-1" source="vRTZqej8DlHhRuhV1Er2-23" target="vRTZqej8DlHhRuhV1Er2-17">
          <mxGeometry relative="1" as="geometry" />
        </mxCell>
        <mxCell id="vRTZqej8DlHhRuhV1Er2-23" value="LOGIN" style="shape=providedRequiredInterface;html=1;verticalLabelPosition=bottom;sketch=0;fillStyle=solid;fillColor=none;rotation=0;" vertex="1" parent="vRTZqej8DlHhRuhV1Er2-1">
          <mxGeometry x="280" y="190" width="20" height="20" as="geometry" />
        </mxCell>
        <mxCell id="vRTZqej8DlHhRuhV1Er2-24" style="edgeStyle=none;rounded=0;orthogonalLoop=1;jettySize=auto;html=1;entryX=1;entryY=0.25;entryDx=0;entryDy=0;" edge="1" parent="vRTZqej8DlHhRuhV1Er2-1" source="vRTZqej8DlHhRuhV1Er2-25" target="vRTZqej8DlHhRuhV1Er2-9">
          <mxGeometry relative="1" as="geometry" />
        </mxCell>
        <mxCell id="vRTZqej8DlHhRuhV1Er2-25" value="CATALOGO" style="shape=providedRequiredInterface;html=1;verticalLabelPosition=bottom;sketch=0;fillStyle=solid;fillColor=none;rotation=0;" vertex="1" parent="vRTZqej8DlHhRuhV1Er2-1">
          <mxGeometry x="339" y="190" width="20" height="20" as="geometry" />
        </mxCell>
        <mxCell id="vRTZqej8DlHhRuhV1Er2-26" style="rounded=0;orthogonalLoop=1;jettySize=auto;html=1;" edge="1" parent="vRTZqej8DlHhRuhV1Er2-1" source="vRTZqej8DlHhRuhV1Er2-29" target="vRTZqej8DlHhRuhV1Er2-21">
          <mxGeometry relative="1" as="geometry" />
        </mxCell>
        <mxCell id="vRTZqej8DlHhRuhV1Er2-27" style="edgeStyle=none;rounded=0;orthogonalLoop=1;jettySize=auto;html=1;" edge="1" parent="vRTZqej8DlHhRuhV1Er2-1" source="vRTZqej8DlHhRuhV1Er2-29" target="vRTZqej8DlHhRuhV1Er2-23">
          <mxGeometry relative="1" as="geometry" />
        </mxCell>
        <mxCell id="vRTZqej8DlHhRuhV1Er2-28" style="edgeStyle=none;rounded=0;orthogonalLoop=1;jettySize=auto;html=1;" edge="1" parent="vRTZqej8DlHhRuhV1Er2-1" source="vRTZqej8DlHhRuhV1Er2-29" target="vRTZqej8DlHhRuhV1Er2-25">
          <mxGeometry relative="1" as="geometry" />
        </mxCell>
        <mxCell id="vRTZqej8DlHhRuhV1Er2-29" value="PLPL" style="outlineConnect=0;dashed=0;verticalLabelPosition=bottom;verticalAlign=top;align=center;html=1;shape=mxgraph.aws3.direct_connect;fillColor=#F58536;gradientColor=none;fillStyle=solid;" vertex="1" parent="vRTZqej8DlHhRuhV1Er2-1">
          <mxGeometry x="331.63" y="90" width="34.75" height="43.5" as="geometry" />
        </mxCell>
        <mxCell id="vRTZqej8DlHhRuhV1Er2-30" style="edgeStyle=none;rounded=0;orthogonalLoop=1;jettySize=auto;html=1;entryX=0.653;entryY=0.073;entryDx=0;entryDy=0;entryPerimeter=0;" edge="1" parent="vRTZqej8DlHhRuhV1Er2-1" source="vRTZqej8DlHhRuhV1Er2-33" target="vRTZqej8DlHhRuhV1Er2-23">
          <mxGeometry relative="1" as="geometry" />
        </mxCell>
        <mxCell id="vRTZqej8DlHhRuhV1Er2-31" style="edgeStyle=none;rounded=0;orthogonalLoop=1;jettySize=auto;html=1;" edge="1" parent="vRTZqej8DlHhRuhV1Er2-1" source="vRTZqej8DlHhRuhV1Er2-33" target="vRTZqej8DlHhRuhV1Er2-39">
          <mxGeometry relative="1" as="geometry" />
        </mxCell>
        <mxCell id="vRTZqej8DlHhRuhV1Er2-32" style="edgeStyle=none;rounded=0;orthogonalLoop=1;jettySize=auto;html=1;entryX=0.821;entryY=0.073;entryDx=0;entryDy=0;entryPerimeter=0;" edge="1" parent="vRTZqej8DlHhRuhV1Er2-1" source="vRTZqej8DlHhRuhV1Er2-33" target="vRTZqej8DlHhRuhV1Er2-41">
          <mxGeometry relative="1" as="geometry" />
        </mxCell>
        <mxCell id="vRTZqej8DlHhRuhV1Er2-33" value="GDL" style="outlineConnect=0;dashed=0;verticalLabelPosition=bottom;verticalAlign=top;align=center;html=1;shape=mxgraph.aws3.service_catalog;fillColor=#759C3E;gradientColor=none;fillStyle=solid;" vertex="1" parent="vRTZqej8DlHhRuhV1Er2-1">
          <mxGeometry x="215.63" y="85.13" width="41.75" height="53.25" as="geometry" />
        </mxCell>
        <mxCell id="vRTZqej8DlHhRuhV1Er2-34" value="ISBN" style="outlineConnect=0;dashed=0;verticalLabelPosition=bottom;verticalAlign=top;align=center;html=1;shape=mxgraph.aws3.device_farm;fillColor=#AD688B;gradientColor=none;fillStyle=solid;" vertex="1" parent="vRTZqej8DlHhRuhV1Er2-1">
          <mxGeometry x="117.25" y="577.5" width="50" height="45" as="geometry" />
        </mxCell>
        <mxCell id="vRTZqej8DlHhRuhV1Er2-35" value="MAGNEWS" style="outlineConnect=0;dashed=0;verticalLabelPosition=bottom;verticalAlign=top;align=center;html=1;shape=mxgraph.aws3.snowball;fillColor=#E05243;gradientColor=none;fillStyle=solid;" vertex="1" parent="vRTZqej8DlHhRuhV1Er2-1">
          <mxGeometry x="97" y="85.13" width="45.25" height="45.5" as="geometry" />
        </mxCell>
        <mxCell id="vRTZqej8DlHhRuhV1Er2-36" style="edgeStyle=none;rounded=0;orthogonalLoop=1;jettySize=auto;html=1;" edge="1" parent="vRTZqej8DlHhRuhV1Er2-1" source="vRTZqej8DlHhRuhV1Er2-37" target="vRTZqej8DlHhRuhV1Er2-43">
          <mxGeometry relative="1" as="geometry" />
        </mxCell>
        <mxCell id="vRTZqej8DlHhRuhV1Er2-37" value="INFINITY" style="outlineConnect=0;dashed=0;verticalLabelPosition=bottom;verticalAlign=top;align=center;html=1;shape=mxgraph.aws3.opsworks;fillColor=#759C3E;gradientColor=none;fillStyle=solid;" vertex="1" parent="vRTZqej8DlHhRuhV1Er2-1">
          <mxGeometry x="394" y="580" width="40" height="40" as="geometry" />
        </mxCell>
        <mxCell id="vRTZqej8DlHhRuhV1Er2-38" style="edgeStyle=none;rounded=0;orthogonalLoop=1;jettySize=auto;html=1;entryX=0;entryY=0.5;entryDx=0;entryDy=0;" edge="1" parent="vRTZqej8DlHhRuhV1Er2-1" source="vRTZqej8DlHhRuhV1Er2-39" target="vRTZqej8DlHhRuhV1Er2-9">
          <mxGeometry relative="1" as="geometry" />
        </mxCell>
        <mxCell id="vRTZqej8DlHhRuhV1Er2-39" value="FUORI&lt;br&gt;CATALOGO" style="shape=providedRequiredInterface;html=1;verticalLabelPosition=bottom;sketch=0;fillStyle=solid;fillColor=none;rotation=0;" vertex="1" parent="vRTZqej8DlHhRuhV1Er2-1">
          <mxGeometry x="226.51" y="190" width="20" height="20" as="geometry" />
        </mxCell>
        <mxCell id="vRTZqej8DlHhRuhV1Er2-40" style="edgeStyle=none;rounded=0;orthogonalLoop=1;jettySize=auto;html=1;" edge="1" parent="vRTZqej8DlHhRuhV1Er2-1" source="vRTZqej8DlHhRuhV1Er2-41" target="vRTZqej8DlHhRuhV1Er2-12">
          <mxGeometry relative="1" as="geometry" />
        </mxCell>
        <mxCell id="vRTZqej8DlHhRuhV1Er2-41" value="NEWSLETTER" style="shape=providedRequiredInterface;html=1;verticalLabelPosition=bottom;sketch=0;fillStyle=solid;fillColor=none;rotation=0;" vertex="1" parent="vRTZqej8DlHhRuhV1Er2-1">
          <mxGeometry x="150" y="190" width="20" height="20" as="geometry" />
        </mxCell>
        <mxCell id="vRTZqej8DlHhRuhV1Er2-42" style="edgeStyle=none;rounded=0;orthogonalLoop=1;jettySize=auto;html=1;entryX=1;entryY=0.5;entryDx=0;entryDy=0;" edge="1" parent="vRTZqej8DlHhRuhV1Er2-1" source="vRTZqej8DlHhRuhV1Er2-43" target="vRTZqej8DlHhRuhV1Er2-16">
          <mxGeometry relative="1" as="geometry" />
        </mxCell>
        <mxCell id="vRTZqej8DlHhRuhV1Er2-43" value="WS &lt;br&gt;ORDINE" style="shape=providedRequiredInterface;html=1;verticalLabelPosition=top;sketch=0;fillStyle=solid;fillColor=none;rotation=0;labelPosition=center;align=center;verticalAlign=bottom;" vertex="1" parent="vRTZqej8DlHhRuhV1Er2-1">
          <mxGeometry x="359" y="530" width="20" height="20" as="geometry" />
        </mxCell>
        <mxCell id="vRTZqej8DlHhRuhV1Er2-44" style="rounded=0;orthogonalLoop=1;jettySize=auto;html=1;entryX=0;entryY=0.5;entryDx=0;entryDy=0;entryPerimeter=0;edgeStyle=elbowEdgeStyle;" edge="1" parent="vRTZqej8DlHhRuhV1Er2-1" target="vRTZqej8DlHhRuhV1Er2-37">
          <mxGeometry relative="1" as="geometry">
            <mxPoint x="210" y="490" as="sourcePoint" />
            <mxPoint x="196.63461538461536" y="705" as="targetPoint" />
            <Array as="points">
              <mxPoint x="210" y="540" />
            </Array>
          </mxGeometry>
        </mxCell>
        <mxCell id="vRTZqej8DlHhRuhV1Er2-45" value="Avvenuto &lt;br&gt;Pagamento" style="edgeLabel;html=1;align=center;verticalAlign=middle;resizable=0;points=[];" vertex="1" connectable="0" parent="vRTZqej8DlHhRuhV1Er2-44">
          <mxGeometry x="0.2353" relative="1" as="geometry">
            <mxPoint as="offset" />
          </mxGeometry>
        </mxCell>
        <mxCell id="vRTZqej8DlHhRuhV1Er2-46" value="Banca Sella" style="outlineConnect=0;dashed=0;verticalLabelPosition=bottom;verticalAlign=top;align=center;html=1;shape=mxgraph.aws3.cart;fillColor=#5294CF;gradientColor=none;fillStyle=solid;" vertex="1" parent="vRTZqej8DlHhRuhV1Er2-1">
          <mxGeometry x="10" y="90.69" width="50" height="42.12" as="geometry" />
        </mxCell>
        <mxCell id="vRTZqej8DlHhRuhV1Er2-47" value="MEDRA" style="whiteSpace=wrap;html=1;aspect=fixed;fillStyle=solid;fillColor=none;labelPosition=center;verticalLabelPosition=bottom;align=center;verticalAlign=top;" vertex="1" parent="vRTZqej8DlHhRuhV1Er2-1">
          <mxGeometry x="650" y="310" width="151" height="151" as="geometry" />
        </mxCell>
        <mxCell id="vRTZqej8DlHhRuhV1Er2-48" style="edgeStyle=none;rounded=0;orthogonalLoop=1;jettySize=auto;html=1;exitX=0;exitY=0.5;exitDx=0;exitDy=0;exitPerimeter=0;" edge="1" parent="vRTZqej8DlHhRuhV1Er2-1" source="vRTZqej8DlHhRuhV1Er2-39" target="vRTZqej8DlHhRuhV1Er2-39">
          <mxGeometry relative="1" as="geometry" />
        </mxCell>
        <mxCell id="JWnE5cAr2e-XjcFcrxjR-3" style="edgeStyle=elbowEdgeStyle;rounded=0;orthogonalLoop=1;jettySize=auto;html=1;entryX=0.36;entryY=0.03;entryDx=0;entryDy=0;entryPerimeter=0;" edge="1" parent="vRTZqej8DlHhRuhV1Er2-1" source="JWnE5cAr2e-XjcFcrxjR-0" target="JWnE5cAr2e-XjcFcrxjR-1">
          <mxGeometry relative="1" as="geometry" />
        </mxCell>
        <mxCell id="JWnE5cAr2e-XjcFcrxjR-0" value="PROVIDER CMS" style="whiteSpace=wrap;html=1;aspect=fixed;fillStyle=solid;fillColor=none;labelPosition=center;verticalLabelPosition=bottom;align=center;verticalAlign=top;" vertex="1" parent="vRTZqej8DlHhRuhV1Er2-1">
          <mxGeometry x="640" y="36.25" width="151" height="151" as="geometry" />
        </mxCell>
        <mxCell id="JWnE5cAr2e-XjcFcrxjR-4" style="rounded=0;orthogonalLoop=1;jettySize=auto;html=1;entryX=1;entryY=0.5;entryDx=0;entryDy=0;entryPerimeter=0;exitX=0;exitY=0.5;exitDx=0;exitDy=0;" edge="1" parent="vRTZqej8DlHhRuhV1Er2-1" source="JWnE5cAr2e-XjcFcrxjR-5" target="JWnE5cAr2e-XjcFcrxjR-2">
          <mxGeometry relative="1" as="geometry" />
        </mxCell>
        <mxCell id="JWnE5cAr2e-XjcFcrxjR-1" value="AIE" style="shape=providedRequiredInterface;html=1;verticalLabelPosition=bottom;sketch=0;fillStyle=solid;fillColor=none;rotation=0;" vertex="1" parent="vRTZqej8DlHhRuhV1Er2-1">
          <mxGeometry x="730" y="300" width="20" height="20" as="geometry" />
        </mxCell>
        <mxCell id="JWnE5cAr2e-XjcFcrxjR-2" value="AIE" style="shape=providedRequiredInterface;html=1;verticalLabelPosition=bottom;sketch=0;fillStyle=solid;fillColor=none;rotation=0;" vertex="1" parent="vRTZqej8DlHhRuhV1Er2-1">
          <mxGeometry x="450" y="270" width="20" height="20" as="geometry" />
        </mxCell>
        <mxCell id="JWnE5cAr2e-XjcFcrxjR-6" style="edgeStyle=none;rounded=0;orthogonalLoop=1;jettySize=auto;html=1;startArrow=classic;startFill=1;endArrow=none;endFill=0;" edge="1" parent="vRTZqej8DlHhRuhV1Er2-1" source="JWnE5cAr2e-XjcFcrxjR-5" target="JWnE5cAr2e-XjcFcrxjR-1">
          <mxGeometry relative="1" as="geometry" />
        </mxCell>
        <mxCell id="JWnE5cAr2e-XjcFcrxjR-5" value="" style="shape=datastore;whiteSpace=wrap;html=1;fillStyle=solid;fillColor=none;" vertex="1" parent="vRTZqej8DlHhRuhV1Er2-1">
          <mxGeometry x="725" y="400" width="30" height="40" as="geometry" />
        </mxCell>
        <mxCell id="JWnE5cAr2e-XjcFcrxjR-8" style="edgeStyle=none;rounded=0;orthogonalLoop=1;jettySize=auto;html=1;startArrow=classic;startFill=1;endArrow=none;endFill=0;exitX=1;exitY=0.5;exitDx=0;exitDy=0;" edge="1" parent="vRTZqej8DlHhRuhV1Er2-1">
          <mxGeometry relative="1" as="geometry">
            <mxPoint x="710" y="345" as="sourcePoint" />
            <mxPoint x="740" y="320" as="targetPoint" />
          </mxGeometry>
        </mxCell>
        <mxCell id="JWnE5cAr2e-XjcFcrxjR-9" style="rounded=0;orthogonalLoop=1;jettySize=auto;html=1;edgeStyle=orthogonalEdgeStyle;" edge="1" parent="vRTZqej8DlHhRuhV1Er2-1" source="vRTZqej8DlHhRuhV1Er2-47" target="vRTZqej8DlHhRuhV1Er2-23">
          <mxGeometry relative="1" as="geometry">
            <mxPoint x="735" y="430" as="sourcePoint" />
            <mxPoint x="480" y="290" as="targetPoint" />
            <Array as="points">
              <mxPoint x="660" y="160" />
              <mxPoint x="290" y="160" />
            </Array>
          </mxGeometry>
        </mxCell>
        <mxCell id="Z8TNFPgdZuLaz5nqVst3-1" value="" style="shape=image;html=1;verticalAlign=top;verticalLabelPosition=bottom;labelBackgroundColor=#ffffff;imageAspect=0;aspect=fixed;image=https://cdn3.iconfinder.com/data/icons/internet-and-web-4/78/internt_web_technology-16-128.png;fillStyle=solid;fillColor=none;" vertex="1" parent="vRTZqej8DlHhRuhV1Er2-1">
          <mxGeometry x="680" y="340" width="30" height="30" as="geometry" />
        </mxCell>
      </root>
    </mxGraphModel>
  </diagram>
  <diagram name="Fase III" id="wL1UTHaOxS6XoJ8cQ2tc">
    <mxGraphModel dx="1050" dy="491" grid="1" gridSize="10" guides="1" tooltips="1" connect="1" arrows="1" fold="1" page="1" pageScale="1" pageWidth="827" pageHeight="1169" math="0" shadow="0">
      <root>
        <mxCell id="3aQLD40jaW0y5R_V7nJj-0" />
        <mxCell id="3aQLD40jaW0y5R_V7nJj-1" parent="3aQLD40jaW0y5R_V7nJj-0" />
        <mxCell id="3aQLD40jaW0y5R_V7nJj-50" value="PROVIDER CMS" style="whiteSpace=wrap;html=1;aspect=fixed;fillStyle=solid;fillColor=none;labelPosition=center;verticalLabelPosition=bottom;align=center;verticalAlign=top;" vertex="1" parent="3aQLD40jaW0y5R_V7nJj-1">
          <mxGeometry x="640" y="85.13" width="151" height="151" as="geometry" />
        </mxCell>
        <mxCell id="3aQLD40jaW0y5R_V7nJj-2" value="DNN" style="whiteSpace=wrap;html=1;fillColor=none;verticalAlign=top;labelPosition=center;verticalLabelPosition=bottom;align=center;" vertex="1" parent="3aQLD40jaW0y5R_V7nJj-1">
          <mxGeometry x="440" y="662.5" width="150" height="340" as="geometry" />
        </mxCell>
        <mxCell id="3aQLD40jaW0y5R_V7nJj-3" value="DNN+SKEDA" style="whiteSpace=wrap;html=1;fillColor=none;verticalAlign=top;labelPosition=center;verticalLabelPosition=bottom;align=center;" vertex="1" parent="3aQLD40jaW0y5R_V7nJj-1">
          <mxGeometry x="50" y="662.5" width="390" height="340" as="geometry" />
        </mxCell>
        <mxCell id="3aQLD40jaW0y5R_V7nJj-4" value="www.isbn.it" style="sketch=0;pointerEvents=1;shadow=0;dashed=0;html=1;strokeColor=none;fillColor=#505050;labelPosition=center;verticalLabelPosition=bottom;verticalAlign=top;outlineConnect=0;align=center;shape=mxgraph.office.sites.website;" vertex="1" parent="3aQLD40jaW0y5R_V7nJj-1">
          <mxGeometry x="660" y="96.75" width="30" height="30" as="geometry" />
        </mxCell>
        <mxCell id="3aQLD40jaW0y5R_V7nJj-5" value="www.aie.it" style="sketch=0;pointerEvents=1;shadow=0;dashed=0;html=1;strokeColor=none;fillColor=#505050;labelPosition=center;verticalLabelPosition=bottom;verticalAlign=top;outlineConnect=0;align=center;shape=mxgraph.office.sites.website;" vertex="1" parent="3aQLD40jaW0y5R_V7nJj-1">
          <mxGeometry x="720" y="160" width="40" height="30" as="geometry" />
        </mxCell>
        <mxCell id="3aQLD40jaW0y5R_V7nJj-6" value="network.aie.it" style="sketch=0;pointerEvents=1;shadow=0;dashed=0;html=1;strokeColor=none;fillColor=#505050;labelPosition=center;verticalLabelPosition=bottom;verticalAlign=top;outlineConnect=0;align=center;shape=mxgraph.office.sites.site_team;" vertex="1" parent="3aQLD40jaW0y5R_V7nJj-1">
          <mxGeometry x="420" y="812.5" width="40" height="30" as="geometry" />
        </mxCell>
        <mxCell id="3aQLD40jaW0y5R_V7nJj-7" value="users.aie.it" style="sketch=0;pointerEvents=1;shadow=0;dashed=0;html=1;strokeColor=none;fillColor=#505050;labelPosition=center;verticalLabelPosition=bottom;verticalAlign=top;outlineConnect=0;align=center;shape=mxgraph.office.sites.site_team;" vertex="1" parent="3aQLD40jaW0y5R_V7nJj-1">
          <mxGeometry x="420" y="872.5" width="40" height="30" as="geometry" />
        </mxCell>
        <mxCell id="3aQLD40jaW0y5R_V7nJj-8" value="config.aie.it" style="sketch=0;pointerEvents=1;shadow=0;dashed=0;html=1;strokeColor=none;fillColor=#505050;labelPosition=center;verticalLabelPosition=bottom;verticalAlign=top;outlineConnect=0;align=center;shape=mxgraph.office.sites.site_team;" vertex="1" parent="3aQLD40jaW0y5R_V7nJj-1">
          <mxGeometry x="420" y="932.5" width="40" height="30" as="geometry" />
        </mxCell>
        <mxCell id="3aQLD40jaW0y5R_V7nJj-9" value="SOCI" style="shape=image;html=1;verticalAlign=top;verticalLabelPosition=bottom;labelBackgroundColor=#ffffff;imageAspect=0;aspect=fixed;image=https://cdn1.iconfinder.com/data/icons/ionicons-fill-vol-2/512/logo-web-component-128.png;fillStyle=solid;fillColor=none;" vertex="1" parent="3aQLD40jaW0y5R_V7nJj-1">
          <mxGeometry x="250" y="792.5" width="40" height="40" as="geometry" />
        </mxCell>
        <mxCell id="3aQLD40jaW0y5R_V7nJj-10" style="rounded=0;orthogonalLoop=1;jettySize=auto;html=1;exitX=0.095;exitY=-0.002;exitDx=0;exitDy=0;exitPerimeter=0;" edge="1" parent="3aQLD40jaW0y5R_V7nJj-1" source="3aQLD40jaW0y5R_V7nJj-47" target="3aQLD40jaW0y5R_V7nJj-35">
          <mxGeometry relative="1" as="geometry">
            <mxPoint x="80" y="610" as="sourcePoint" />
          </mxGeometry>
        </mxCell>
        <mxCell id="3aQLD40jaW0y5R_V7nJj-11" value="News" style="edgeLabel;html=1;align=center;verticalAlign=middle;resizable=0;points=[];" vertex="1" connectable="0" parent="3aQLD40jaW0y5R_V7nJj-10">
          <mxGeometry x="0.5533" y="1" relative="1" as="geometry">
            <mxPoint as="offset" />
          </mxGeometry>
        </mxCell>
        <mxCell id="3aQLD40jaW0y5R_V7nJj-12" value="NEWS" style="shape=image;html=1;verticalAlign=top;verticalLabelPosition=bottom;labelBackgroundColor=#ffffff;imageAspect=0;aspect=fixed;image=https://cdn1.iconfinder.com/data/icons/ionicons-fill-vol-2/512/logo-web-component-128.png;fillStyle=solid;fillColor=none;" vertex="1" parent="3aQLD40jaW0y5R_V7nJj-1">
          <mxGeometry x="102.25" y="772.5" width="40" height="40" as="geometry" />
        </mxCell>
        <mxCell id="3aQLD40jaW0y5R_V7nJj-13" style="edgeStyle=none;rounded=0;orthogonalLoop=1;jettySize=auto;html=1;" edge="1" parent="3aQLD40jaW0y5R_V7nJj-1" source="3aQLD40jaW0y5R_V7nJj-16" target="3aQLD40jaW0y5R_V7nJj-34">
          <mxGeometry relative="1" as="geometry" />
        </mxCell>
        <mxCell id="3aQLD40jaW0y5R_V7nJj-14" value="Avvenuto &lt;br&gt;Pagamento" style="edgeLabel;html=1;align=center;verticalAlign=middle;resizable=0;points=[];" vertex="1" connectable="0" parent="3aQLD40jaW0y5R_V7nJj-13">
          <mxGeometry x="0.2353" relative="1" as="geometry">
            <mxPoint as="offset" />
          </mxGeometry>
        </mxCell>
        <mxCell id="3aQLD40jaW0y5R_V7nJj-15" style="edgeStyle=orthogonalEdgeStyle;rounded=0;orthogonalLoop=1;jettySize=auto;html=1;" edge="1" parent="3aQLD40jaW0y5R_V7nJj-1" source="3aQLD40jaW0y5R_V7nJj-16" target="3aQLD40jaW0y5R_V7nJj-46">
          <mxGeometry relative="1" as="geometry" />
        </mxCell>
        <mxCell id="3aQLD40jaW0y5R_V7nJj-16" value="ECOMMERCE" style="shape=image;html=1;verticalAlign=top;verticalLabelPosition=bottom;labelBackgroundColor=#ffffff;imageAspect=0;aspect=fixed;image=https://cdn1.iconfinder.com/data/icons/ionicons-fill-vol-2/512/logo-web-component-128.png;fillStyle=solid;fillColor=none;" vertex="1" parent="3aQLD40jaW0y5R_V7nJj-1">
          <mxGeometry x="170" y="912.5" width="40" height="40" as="geometry" />
        </mxCell>
        <mxCell id="3aQLD40jaW0y5R_V7nJj-17" value="ACCOUNT" style="shape=image;html=1;verticalAlign=top;verticalLabelPosition=bottom;labelBackgroundColor=#ffffff;imageAspect=0;aspect=fixed;image=https://cdn1.iconfinder.com/data/icons/ionicons-fill-vol-2/512/logo-web-component-128.png;fillStyle=solid;fillColor=none;" vertex="1" parent="3aQLD40jaW0y5R_V7nJj-1">
          <mxGeometry x="250" y="722.5" width="40" height="40" as="geometry" />
        </mxCell>
        <mxCell id="3aQLD40jaW0y5R_V7nJj-18" value="NOTE SPESA" style="shape=image;html=1;verticalAlign=top;verticalLabelPosition=bottom;labelBackgroundColor=#ffffff;imageAspect=0;aspect=fixed;image=https://cdn1.iconfinder.com/data/icons/ionicons-fill-vol-2/512/logo-web-component-128.png;fillStyle=solid;fillColor=none;" vertex="1" parent="3aQLD40jaW0y5R_V7nJj-1">
          <mxGeometry x="299" y="872.5" width="40" height="40" as="geometry" />
        </mxCell>
        <mxCell id="3aQLD40jaW0y5R_V7nJj-19" style="edgeStyle=none;rounded=0;orthogonalLoop=1;jettySize=auto;html=1;" edge="1" parent="3aQLD40jaW0y5R_V7nJj-1" target="3aQLD40jaW0y5R_V7nJj-3">
          <mxGeometry relative="1" as="geometry">
            <mxPoint x="414" y="662.5" as="sourcePoint" />
          </mxGeometry>
        </mxCell>
        <mxCell id="3aQLD40jaW0y5R_V7nJj-20" style="edgeStyle=none;rounded=0;orthogonalLoop=1;jettySize=auto;html=1;entryX=1;entryY=0.5;entryDx=0;entryDy=0;" edge="1" parent="3aQLD40jaW0y5R_V7nJj-1" source="VHI2XKkmoJ82cOg97pnA-8" target="3aQLD40jaW0y5R_V7nJj-9">
          <mxGeometry relative="1" as="geometry">
            <mxPoint x="396.4000000000001" y="672.5" as="sourcePoint" />
          </mxGeometry>
        </mxCell>
        <mxCell id="VHI2XKkmoJ82cOg97pnA-10" style="edgeStyle=none;rounded=0;orthogonalLoop=1;jettySize=auto;html=1;entryX=0.35;entryY=0.21;entryDx=0;entryDy=0;entryPerimeter=0;startArrow=none;startFill=0;endArrow=classic;endFill=1;" edge="1" parent="3aQLD40jaW0y5R_V7nJj-1" source="3aQLD40jaW0y5R_V7nJj-21" target="VHI2XKkmoJ82cOg97pnA-8">
          <mxGeometry relative="1" as="geometry" />
        </mxCell>
        <mxCell id="3aQLD40jaW0y5R_V7nJj-21" value="ACCREDITO" style="shape=providedRequiredInterface;html=1;verticalLabelPosition=bottom;sketch=0;fillStyle=solid;fillColor=none;rotation=0;" vertex="1" parent="3aQLD40jaW0y5R_V7nJj-1">
          <mxGeometry x="414" y="280" width="20" height="20" as="geometry" />
        </mxCell>
        <mxCell id="3aQLD40jaW0y5R_V7nJj-22" style="edgeStyle=none;rounded=0;orthogonalLoop=1;jettySize=auto;html=1;entryX=0.5;entryY=0;entryDx=0;entryDy=0;" edge="1" parent="3aQLD40jaW0y5R_V7nJj-1" source="VHI2XKkmoJ82cOg97pnA-4" target="3aQLD40jaW0y5R_V7nJj-17">
          <mxGeometry relative="1" as="geometry">
            <mxPoint x="270" y="672.5" as="sourcePoint" />
          </mxGeometry>
        </mxCell>
        <mxCell id="VHI2XKkmoJ82cOg97pnA-6" style="edgeStyle=none;rounded=0;orthogonalLoop=1;jettySize=auto;html=1;startArrow=none;startFill=0;endArrow=classic;endFill=1;entryX=0.589;entryY=0.05;entryDx=0;entryDy=0;entryPerimeter=0;" edge="1" parent="3aQLD40jaW0y5R_V7nJj-1" source="3aQLD40jaW0y5R_V7nJj-23" target="VHI2XKkmoJ82cOg97pnA-4">
          <mxGeometry relative="1" as="geometry">
            <mxPoint x="220" y="650" as="targetPoint" />
          </mxGeometry>
        </mxCell>
        <mxCell id="3aQLD40jaW0y5R_V7nJj-23" value="LOGIN" style="shape=providedRequiredInterface;html=1;verticalLabelPosition=bottom;sketch=0;fillStyle=solid;fillColor=none;rotation=0;" vertex="1" parent="3aQLD40jaW0y5R_V7nJj-1">
          <mxGeometry x="281.63" y="280" width="20" height="20" as="geometry" />
        </mxCell>
        <mxCell id="VHI2XKkmoJ82cOg97pnA-11" style="edgeStyle=none;rounded=0;orthogonalLoop=1;jettySize=auto;html=1;entryX=0.5;entryY=0;entryDx=0;entryDy=0;startArrow=none;startFill=0;endArrow=classic;endFill=1;" edge="1" parent="3aQLD40jaW0y5R_V7nJj-1" source="3aQLD40jaW0y5R_V7nJj-25" target="3aQLD40jaW0y5R_V7nJj-55">
          <mxGeometry relative="1" as="geometry" />
        </mxCell>
        <mxCell id="3aQLD40jaW0y5R_V7nJj-25" value="CATALOGO" style="shape=providedRequiredInterface;html=1;verticalLabelPosition=bottom;sketch=0;fillStyle=solid;fillColor=none;rotation=0;" vertex="1" parent="3aQLD40jaW0y5R_V7nJj-1">
          <mxGeometry x="339" y="280" width="20" height="20" as="geometry" />
        </mxCell>
        <mxCell id="3aQLD40jaW0y5R_V7nJj-26" style="rounded=0;orthogonalLoop=1;jettySize=auto;html=1;" edge="1" parent="3aQLD40jaW0y5R_V7nJj-1" source="3aQLD40jaW0y5R_V7nJj-29" target="3aQLD40jaW0y5R_V7nJj-21">
          <mxGeometry relative="1" as="geometry" />
        </mxCell>
        <mxCell id="3aQLD40jaW0y5R_V7nJj-27" style="edgeStyle=none;rounded=0;orthogonalLoop=1;jettySize=auto;html=1;" edge="1" parent="3aQLD40jaW0y5R_V7nJj-1" source="3aQLD40jaW0y5R_V7nJj-29" target="3aQLD40jaW0y5R_V7nJj-23">
          <mxGeometry relative="1" as="geometry" />
        </mxCell>
        <mxCell id="3aQLD40jaW0y5R_V7nJj-28" style="edgeStyle=none;rounded=0;orthogonalLoop=1;jettySize=auto;html=1;" edge="1" parent="3aQLD40jaW0y5R_V7nJj-1" source="3aQLD40jaW0y5R_V7nJj-29" target="3aQLD40jaW0y5R_V7nJj-25">
          <mxGeometry relative="1" as="geometry" />
        </mxCell>
        <mxCell id="3aQLD40jaW0y5R_V7nJj-29" value="PLPL" style="outlineConnect=0;dashed=0;verticalLabelPosition=bottom;verticalAlign=top;align=center;html=1;shape=mxgraph.aws3.direct_connect;fillColor=#F58536;gradientColor=none;fillStyle=solid;" vertex="1" parent="3aQLD40jaW0y5R_V7nJj-1">
          <mxGeometry x="331.63" y="90" width="34.75" height="43.5" as="geometry" />
        </mxCell>
        <mxCell id="3aQLD40jaW0y5R_V7nJj-30" style="edgeStyle=none;rounded=0;orthogonalLoop=1;jettySize=auto;html=1;entryX=0.653;entryY=0.073;entryDx=0;entryDy=0;entryPerimeter=0;" edge="1" parent="3aQLD40jaW0y5R_V7nJj-1" source="3aQLD40jaW0y5R_V7nJj-33" target="3aQLD40jaW0y5R_V7nJj-23">
          <mxGeometry relative="1" as="geometry" />
        </mxCell>
        <mxCell id="3aQLD40jaW0y5R_V7nJj-31" style="edgeStyle=none;rounded=0;orthogonalLoop=1;jettySize=auto;html=1;" edge="1" parent="3aQLD40jaW0y5R_V7nJj-1" source="3aQLD40jaW0y5R_V7nJj-33" target="3aQLD40jaW0y5R_V7nJj-39">
          <mxGeometry relative="1" as="geometry" />
        </mxCell>
        <mxCell id="3aQLD40jaW0y5R_V7nJj-32" style="edgeStyle=none;rounded=0;orthogonalLoop=1;jettySize=auto;html=1;entryX=0.821;entryY=0.073;entryDx=0;entryDy=0;entryPerimeter=0;" edge="1" parent="3aQLD40jaW0y5R_V7nJj-1" source="3aQLD40jaW0y5R_V7nJj-33" target="3aQLD40jaW0y5R_V7nJj-41">
          <mxGeometry relative="1" as="geometry" />
        </mxCell>
        <mxCell id="3aQLD40jaW0y5R_V7nJj-33" value="GDL" style="outlineConnect=0;dashed=0;verticalLabelPosition=bottom;verticalAlign=top;align=center;html=1;shape=mxgraph.aws3.service_catalog;fillColor=#759C3E;gradientColor=none;fillStyle=solid;" vertex="1" parent="3aQLD40jaW0y5R_V7nJj-1">
          <mxGeometry x="215.63" y="85.13" width="41.75" height="53.25" as="geometry" />
        </mxCell>
        <mxCell id="3aQLD40jaW0y5R_V7nJj-34" value="ISBN" style="outlineConnect=0;dashed=0;verticalLabelPosition=bottom;verticalAlign=top;align=center;html=1;shape=mxgraph.aws3.device_farm;fillColor=#AD688B;gradientColor=none;fillStyle=solid;" vertex="1" parent="3aQLD40jaW0y5R_V7nJj-1">
          <mxGeometry x="75.51" y="1050" width="50" height="45" as="geometry" />
        </mxCell>
        <mxCell id="3aQLD40jaW0y5R_V7nJj-35" value="MAGNEWS" style="outlineConnect=0;dashed=0;verticalLabelPosition=bottom;verticalAlign=top;align=center;html=1;shape=mxgraph.aws3.snowball;fillColor=#E05243;gradientColor=none;fillStyle=solid;" vertex="1" parent="3aQLD40jaW0y5R_V7nJj-1">
          <mxGeometry x="97" y="85.13" width="45.25" height="45.5" as="geometry" />
        </mxCell>
        <mxCell id="3aQLD40jaW0y5R_V7nJj-36" style="edgeStyle=none;rounded=0;orthogonalLoop=1;jettySize=auto;html=1;entryX=1;entryY=0.5;entryDx=0;entryDy=0;entryPerimeter=0;" edge="1" parent="3aQLD40jaW0y5R_V7nJj-1" source="3aQLD40jaW0y5R_V7nJj-37" target="VHI2XKkmoJ82cOg97pnA-17">
          <mxGeometry relative="1" as="geometry">
            <mxPoint x="620" y="630" as="targetPoint" />
          </mxGeometry>
        </mxCell>
        <mxCell id="3aQLD40jaW0y5R_V7nJj-37" value="INFINITY" style="outlineConnect=0;dashed=0;verticalLabelPosition=bottom;verticalAlign=top;align=center;html=1;shape=mxgraph.aws3.opsworks;fillColor=#759C3E;gradientColor=none;fillStyle=solid;" vertex="1" parent="3aQLD40jaW0y5R_V7nJj-1">
          <mxGeometry x="720" y="682.5" width="40" height="40" as="geometry" />
        </mxCell>
        <mxCell id="3aQLD40jaW0y5R_V7nJj-38" style="edgeStyle=none;rounded=0;orthogonalLoop=1;jettySize=auto;html=1;entryX=0;entryY=0.5;entryDx=0;entryDy=0;" edge="1" parent="3aQLD40jaW0y5R_V7nJj-1" source="VHI2XKkmoJ82cOg97pnA-12" target="3aQLD40jaW0y5R_V7nJj-9">
          <mxGeometry relative="1" as="geometry">
            <mxPoint x="218.74266666666676" y="672.5" as="sourcePoint" />
          </mxGeometry>
        </mxCell>
        <mxCell id="VHI2XKkmoJ82cOg97pnA-13" style="edgeStyle=none;rounded=0;orthogonalLoop=1;jettySize=auto;html=1;startArrow=none;startFill=0;endArrow=classic;endFill=1;" edge="1" parent="3aQLD40jaW0y5R_V7nJj-1" source="3aQLD40jaW0y5R_V7nJj-39" target="VHI2XKkmoJ82cOg97pnA-12">
          <mxGeometry relative="1" as="geometry" />
        </mxCell>
        <mxCell id="3aQLD40jaW0y5R_V7nJj-39" value="FUORI&lt;br&gt;CATALOGO" style="shape=providedRequiredInterface;html=1;verticalLabelPosition=bottom;sketch=0;fillStyle=solid;fillColor=none;rotation=0;" vertex="1" parent="3aQLD40jaW0y5R_V7nJj-1">
          <mxGeometry x="226.51" y="280" width="20" height="20" as="geometry" />
        </mxCell>
        <mxCell id="3aQLD40jaW0y5R_V7nJj-40" style="edgeStyle=none;rounded=0;orthogonalLoop=1;jettySize=auto;html=1;" edge="1" parent="3aQLD40jaW0y5R_V7nJj-1" source="VHI2XKkmoJ82cOg97pnA-14" target="3aQLD40jaW0y5R_V7nJj-12">
          <mxGeometry relative="1" as="geometry">
            <mxPoint x="138.63461538461547" y="672.5" as="sourcePoint" />
          </mxGeometry>
        </mxCell>
        <mxCell id="VHI2XKkmoJ82cOg97pnA-15" style="edgeStyle=none;rounded=0;orthogonalLoop=1;jettySize=auto;html=1;startArrow=none;startFill=0;endArrow=classic;endFill=1;" edge="1" parent="3aQLD40jaW0y5R_V7nJj-1" source="3aQLD40jaW0y5R_V7nJj-41" target="VHI2XKkmoJ82cOg97pnA-14">
          <mxGeometry relative="1" as="geometry" />
        </mxCell>
        <mxCell id="3aQLD40jaW0y5R_V7nJj-41" value="NEWSLETTER" style="shape=providedRequiredInterface;html=1;verticalLabelPosition=bottom;sketch=0;fillStyle=solid;fillColor=none;rotation=0;" vertex="1" parent="3aQLD40jaW0y5R_V7nJj-1">
          <mxGeometry x="153.25" y="280" width="20" height="20" as="geometry" />
        </mxCell>
        <mxCell id="3aQLD40jaW0y5R_V7nJj-42" style="edgeStyle=none;rounded=0;orthogonalLoop=1;jettySize=auto;html=1;entryX=1;entryY=0.5;entryDx=0;entryDy=0;" edge="1" parent="3aQLD40jaW0y5R_V7nJj-1" source="3aQLD40jaW0y5R_V7nJj-43" target="3aQLD40jaW0y5R_V7nJj-16">
          <mxGeometry relative="1" as="geometry" />
        </mxCell>
        <mxCell id="3aQLD40jaW0y5R_V7nJj-43" value="WS &lt;br&gt;ORDINE" style="shape=providedRequiredInterface;html=1;verticalLabelPosition=bottom;sketch=0;fillStyle=solid;fillColor=none;rotation=0;labelPosition=center;align=center;verticalAlign=top;" vertex="1" parent="3aQLD40jaW0y5R_V7nJj-1">
          <mxGeometry x="550" y="650" width="20" height="20" as="geometry" />
        </mxCell>
        <mxCell id="3aQLD40jaW0y5R_V7nJj-46" value="Banca Sella" style="outlineConnect=0;dashed=0;verticalLabelPosition=bottom;verticalAlign=top;align=center;html=1;shape=mxgraph.aws3.cart;fillColor=#5294CF;gradientColor=none;fillStyle=solid;" vertex="1" parent="3aQLD40jaW0y5R_V7nJj-1">
          <mxGeometry x="10" y="90.69" width="50" height="42.12" as="geometry" />
        </mxCell>
        <mxCell id="VHI2XKkmoJ82cOg97pnA-5" style="edgeStyle=none;rounded=0;orthogonalLoop=1;jettySize=auto;html=1;entryX=0.398;entryY=0.17;entryDx=0;entryDy=0;entryPerimeter=0;startArrow=none;startFill=0;endArrow=classic;endFill=1;" edge="1" parent="3aQLD40jaW0y5R_V7nJj-1" source="3aQLD40jaW0y5R_V7nJj-47" target="VHI2XKkmoJ82cOg97pnA-4">
          <mxGeometry relative="1" as="geometry" />
        </mxCell>
        <mxCell id="3aQLD40jaW0y5R_V7nJj-47" value="MEDRA" style="whiteSpace=wrap;html=1;fillStyle=solid;fillColor=none;labelPosition=center;verticalLabelPosition=bottom;align=center;verticalAlign=top;" vertex="1" parent="3aQLD40jaW0y5R_V7nJj-1">
          <mxGeometry x="75.51" y="290" width="524.49" height="264.49" as="geometry" />
        </mxCell>
        <mxCell id="3aQLD40jaW0y5R_V7nJj-48" style="edgeStyle=none;rounded=0;orthogonalLoop=1;jettySize=auto;html=1;exitX=0;exitY=0.5;exitDx=0;exitDy=0;exitPerimeter=0;" edge="1" parent="3aQLD40jaW0y5R_V7nJj-1">
          <mxGeometry relative="1" as="geometry">
            <mxPoint x="206.51" y="662.5" as="sourcePoint" />
            <mxPoint x="206.51" y="662.5" as="targetPoint" />
          </mxGeometry>
        </mxCell>
        <mxCell id="3aQLD40jaW0y5R_V7nJj-49" style="rounded=0;orthogonalLoop=1;jettySize=auto;html=1;entryX=1;entryY=0.5;entryDx=0;entryDy=0;entryPerimeter=0;exitX=0.5;exitY=1;exitDx=0;exitDy=0;" edge="1" parent="3aQLD40jaW0y5R_V7nJj-1" source="3aQLD40jaW0y5R_V7nJj-50" target="3aQLD40jaW0y5R_V7nJj-52">
          <mxGeometry relative="1" as="geometry" />
        </mxCell>
        <mxCell id="3aQLD40jaW0y5R_V7nJj-51" style="rounded=0;orthogonalLoop=1;jettySize=auto;html=1;exitX=0.5;exitY=1;exitDx=0;exitDy=0;" edge="1" parent="3aQLD40jaW0y5R_V7nJj-1" source="3aQLD40jaW0y5R_V7nJj-55" target="3aQLD40jaW0y5R_V7nJj-53">
          <mxGeometry relative="1" as="geometry" />
        </mxCell>
        <mxCell id="3aQLD40jaW0y5R_V7nJj-53" value="AIE" style="shape=providedRequiredInterface;html=1;verticalLabelPosition=bottom;sketch=0;fillStyle=solid;fillColor=none;rotation=0;" vertex="1" parent="3aQLD40jaW0y5R_V7nJj-1">
          <mxGeometry x="400" y="650" width="20" height="20" as="geometry" />
        </mxCell>
        <mxCell id="3aQLD40jaW0y5R_V7nJj-54" style="edgeStyle=none;rounded=0;orthogonalLoop=1;jettySize=auto;html=1;startArrow=classic;startFill=1;endArrow=none;endFill=0;" edge="1" parent="3aQLD40jaW0y5R_V7nJj-1" source="3aQLD40jaW0y5R_V7nJj-55" target="3aQLD40jaW0y5R_V7nJj-52">
          <mxGeometry relative="1" as="geometry" />
        </mxCell>
        <mxCell id="3aQLD40jaW0y5R_V7nJj-55" value="" style="shape=datastore;whiteSpace=wrap;html=1;fillStyle=solid;fillColor=none;" vertex="1" parent="3aQLD40jaW0y5R_V7nJj-1">
          <mxGeometry x="301.63" y="400" width="30" height="40" as="geometry" />
        </mxCell>
        <mxCell id="3aQLD40jaW0y5R_V7nJj-57" style="edgeStyle=none;rounded=0;orthogonalLoop=1;jettySize=auto;html=1;startArrow=classic;startFill=1;endArrow=none;endFill=0;exitX=1;exitY=0.5;exitDx=0;exitDy=0;entryX=0;entryY=0.5;entryDx=0;entryDy=0;entryPerimeter=0;" edge="1" parent="3aQLD40jaW0y5R_V7nJj-1" target="3aQLD40jaW0y5R_V7nJj-52">
          <mxGeometry relative="1" as="geometry">
            <mxPoint x="560" y="355" as="sourcePoint" />
            <mxPoint x="740" y="320" as="targetPoint" />
          </mxGeometry>
        </mxCell>
        <mxCell id="3aQLD40jaW0y5R_V7nJj-52" value="AIE" style="shape=providedRequiredInterface;html=1;verticalLabelPosition=bottom;sketch=0;fillStyle=solid;fillColor=none;rotation=0;" vertex="1" parent="3aQLD40jaW0y5R_V7nJj-1">
          <mxGeometry x="590" y="412.25" width="20" height="20" as="geometry" />
        </mxCell>
        <mxCell id="VHI2XKkmoJ82cOg97pnA-2" value="SINCRONIZZAZIONE" style="shape=providedRequiredInterface;html=1;verticalLabelPosition=bottom;sketch=0;fillStyle=solid;fillColor=none;rotation=0;" vertex="1" parent="3aQLD40jaW0y5R_V7nJj-1">
          <mxGeometry x="319" y="650" width="20" height="20" as="geometry" />
        </mxCell>
        <mxCell id="VHI2XKkmoJ82cOg97pnA-3" style="rounded=0;orthogonalLoop=1;jettySize=auto;html=1;exitX=0.5;exitY=1;exitDx=0;exitDy=0;entryX=0.358;entryY=0.01;entryDx=0;entryDy=0;entryPerimeter=0;" edge="1" parent="3aQLD40jaW0y5R_V7nJj-1" source="3aQLD40jaW0y5R_V7nJj-55" target="VHI2XKkmoJ82cOg97pnA-2">
          <mxGeometry relative="1" as="geometry">
            <mxPoint x="240.0000000000001" y="440" as="sourcePoint" />
            <mxPoint x="329.1259090909092" y="650" as="targetPoint" />
          </mxGeometry>
        </mxCell>
        <mxCell id="VHI2XKkmoJ82cOg97pnA-4" value="LOGIN" style="shape=providedRequiredInterface;html=1;verticalLabelPosition=bottom;sketch=0;fillStyle=solid;fillColor=none;rotation=0;" vertex="1" parent="3aQLD40jaW0y5R_V7nJj-1">
          <mxGeometry x="224.63" y="650" width="20" height="20" as="geometry" />
        </mxCell>
        <mxCell id="VHI2XKkmoJ82cOg97pnA-8" value="ACCREDITO" style="shape=providedRequiredInterface;html=1;verticalLabelPosition=bottom;sketch=0;fillStyle=solid;fillColor=none;rotation=0;" vertex="1" parent="3aQLD40jaW0y5R_V7nJj-1">
          <mxGeometry x="475" y="650" width="20" height="20" as="geometry" />
        </mxCell>
        <mxCell id="VHI2XKkmoJ82cOg97pnA-12" value="FUORI&lt;br&gt;CATALOGO" style="shape=providedRequiredInterface;html=1;verticalLabelPosition=bottom;sketch=0;fillStyle=solid;fillColor=none;rotation=0;" vertex="1" parent="3aQLD40jaW0y5R_V7nJj-1">
          <mxGeometry x="160.25" y="650" width="20" height="20" as="geometry" />
        </mxCell>
        <mxCell id="VHI2XKkmoJ82cOg97pnA-14" value="NEWSLETTER" style="shape=providedRequiredInterface;html=1;verticalLabelPosition=bottom;sketch=0;fillStyle=solid;fillColor=none;rotation=0;" vertex="1" parent="3aQLD40jaW0y5R_V7nJj-1">
          <mxGeometry x="82.25" y="650" width="20" height="20" as="geometry" />
        </mxCell>
        <mxCell id="VHI2XKkmoJ82cOg97pnA-20" style="edgeStyle=orthogonalEdgeStyle;rounded=0;orthogonalLoop=1;jettySize=auto;html=1;entryX=0.56;entryY=0.25;entryDx=0;entryDy=0;entryPerimeter=0;startArrow=none;startFill=0;endArrow=classic;endFill=1;" edge="1" parent="3aQLD40jaW0y5R_V7nJj-1" source="VHI2XKkmoJ82cOg97pnA-17" target="3aQLD40jaW0y5R_V7nJj-43">
          <mxGeometry relative="1" as="geometry">
            <Array as="points">
              <mxPoint x="580" y="520" />
              <mxPoint x="580" y="655" />
            </Array>
          </mxGeometry>
        </mxCell>
        <mxCell id="VHI2XKkmoJ82cOg97pnA-17" value="WS &lt;br&gt;ORDINE" style="shape=providedRequiredInterface;html=1;verticalLabelPosition=top;sketch=0;fillStyle=solid;fillColor=none;rotation=0;labelPosition=center;align=center;verticalAlign=bottom;" vertex="1" parent="3aQLD40jaW0y5R_V7nJj-1">
          <mxGeometry x="590" y="510" width="20" height="20" as="geometry" />
        </mxCell>
        <mxCell id="VHI2XKkmoJ82cOg97pnA-22" style="edgeStyle=orthogonalEdgeStyle;rounded=0;orthogonalLoop=1;jettySize=auto;html=1;entryX=0.5;entryY=1;entryDx=0;entryDy=0;entryPerimeter=0;" edge="1" parent="3aQLD40jaW0y5R_V7nJj-1" target="3aQLD40jaW0y5R_V7nJj-37">
          <mxGeometry relative="1" as="geometry">
            <mxPoint x="186.20833333333326" y="962.5" as="sourcePoint" />
            <mxPoint x="132.765625" y="1040" as="targetPoint" />
            <Array as="points">
              <mxPoint x="186" y="1060" />
              <mxPoint x="740" y="1060" />
            </Array>
          </mxGeometry>
        </mxCell>
        <mxCell id="VHI2XKkmoJ82cOg97pnA-23" value="Avvenuto &lt;br&gt;Pagamento" style="edgeLabel;html=1;align=center;verticalAlign=middle;resizable=0;points=[];" vertex="1" connectable="0" parent="VHI2XKkmoJ82cOg97pnA-22">
          <mxGeometry x="0.2353" relative="1" as="geometry">
            <mxPoint as="offset" />
          </mxGeometry>
        </mxCell>
        <mxCell id="8s7J74jAAUZ_iDNED1fJ-0" value="" style="shape=image;html=1;verticalAlign=top;verticalLabelPosition=bottom;labelBackgroundColor=#ffffff;imageAspect=0;aspect=fixed;image=https://cdn3.iconfinder.com/data/icons/internet-and-web-4/78/internt_web_technology-16-128.png;fillStyle=solid;fillColor=none;" vertex="1" parent="3aQLD40jaW0y5R_V7nJj-1">
          <mxGeometry x="530" y="340" width="30" height="30" as="geometry" />
        </mxCell>
        <mxCell id="8s7J74jAAUZ_iDNED1fJ-2" value="" style="shape=image;html=1;verticalAlign=top;verticalLabelPosition=bottom;labelBackgroundColor=#ffffff;imageAspect=0;aspect=fixed;image=https://cdn3.iconfinder.com/data/icons/internet-and-web-4/78/internt_web_technology-16-128.png;fillStyle=solid;fillColor=none;" vertex="1" parent="3aQLD40jaW0y5R_V7nJj-1">
          <mxGeometry x="530" y="460" width="30" height="30" as="geometry" />
        </mxCell>
      </root>
    </mxGraphModel>
  </diagram>
  <diagram name="Fase IV" id="ygS-NP549cTJBL5Y7BZt">
    <mxGraphModel dx="1050" dy="491" grid="1" gridSize="10" guides="1" tooltips="1" connect="1" arrows="1" fold="1" page="1" pageScale="1" pageWidth="827" pageHeight="1169" math="0" shadow="0">
      <root>
        <mxCell id="RBjAXkamC-jVU3sj5j-2-0" />
        <mxCell id="RBjAXkamC-jVU3sj5j-2-1" parent="RBjAXkamC-jVU3sj5j-2-0" />
        <mxCell id="RBjAXkamC-jVU3sj5j-2-2" value="PROVIDER CMS" style="whiteSpace=wrap;html=1;aspect=fixed;fillStyle=solid;fillColor=none;labelPosition=center;verticalLabelPosition=bottom;align=center;verticalAlign=top;" vertex="1" parent="RBjAXkamC-jVU3sj5j-2-1">
          <mxGeometry x="640" y="85.13" width="151" height="151" as="geometry" />
        </mxCell>
        <mxCell id="RBjAXkamC-jVU3sj5j-2-3" value="DNN" style="whiteSpace=wrap;html=1;fillColor=none;verticalAlign=top;labelPosition=center;verticalLabelPosition=bottom;align=center;" vertex="1" parent="RBjAXkamC-jVU3sj5j-2-1">
          <mxGeometry x="440" y="662.5" width="150" height="340" as="geometry" />
        </mxCell>
        <mxCell id="RBjAXkamC-jVU3sj5j-2-4" value="DNN+SKEDA" style="whiteSpace=wrap;html=1;fillColor=none;verticalAlign=top;labelPosition=center;verticalLabelPosition=bottom;align=center;" vertex="1" parent="RBjAXkamC-jVU3sj5j-2-1">
          <mxGeometry x="50" y="662.5" width="390" height="340" as="geometry" />
        </mxCell>
        <mxCell id="RBjAXkamC-jVU3sj5j-2-5" value="www.isbn.it" style="sketch=0;pointerEvents=1;shadow=0;dashed=0;html=1;strokeColor=none;fillColor=#505050;labelPosition=center;verticalLabelPosition=bottom;verticalAlign=top;outlineConnect=0;align=center;shape=mxgraph.office.sites.website;" vertex="1" parent="RBjAXkamC-jVU3sj5j-2-1">
          <mxGeometry x="660" y="96.75" width="30" height="30" as="geometry" />
        </mxCell>
        <mxCell id="RBjAXkamC-jVU3sj5j-2-6" value="www.aie.it" style="sketch=0;pointerEvents=1;shadow=0;dashed=0;html=1;strokeColor=none;fillColor=#505050;labelPosition=center;verticalLabelPosition=bottom;verticalAlign=top;outlineConnect=0;align=center;shape=mxgraph.office.sites.website;" vertex="1" parent="RBjAXkamC-jVU3sj5j-2-1">
          <mxGeometry x="720" y="160" width="40" height="30" as="geometry" />
        </mxCell>
        <mxCell id="RBjAXkamC-jVU3sj5j-2-7" value="network.aie.it" style="sketch=0;pointerEvents=1;shadow=0;dashed=0;html=1;strokeColor=none;fillColor=#505050;labelPosition=center;verticalLabelPosition=bottom;verticalAlign=top;outlineConnect=0;align=center;shape=mxgraph.office.sites.site_team;" vertex="1" parent="RBjAXkamC-jVU3sj5j-2-1">
          <mxGeometry x="420" y="812.5" width="40" height="30" as="geometry" />
        </mxCell>
        <mxCell id="RBjAXkamC-jVU3sj5j-2-8" value="users.aie.it" style="sketch=0;pointerEvents=1;shadow=0;dashed=0;html=1;strokeColor=none;fillColor=#505050;labelPosition=center;verticalLabelPosition=bottom;verticalAlign=top;outlineConnect=0;align=center;shape=mxgraph.office.sites.site_team;" vertex="1" parent="RBjAXkamC-jVU3sj5j-2-1">
          <mxGeometry x="420" y="872.5" width="40" height="30" as="geometry" />
        </mxCell>
        <mxCell id="RBjAXkamC-jVU3sj5j-2-9" value="config.aie.it" style="sketch=0;pointerEvents=1;shadow=0;dashed=0;html=1;strokeColor=none;fillColor=#505050;labelPosition=center;verticalLabelPosition=bottom;verticalAlign=top;outlineConnect=0;align=center;shape=mxgraph.office.sites.site_team;" vertex="1" parent="RBjAXkamC-jVU3sj5j-2-1">
          <mxGeometry x="420" y="932.5" width="40" height="30" as="geometry" />
        </mxCell>
        <mxCell id="RBjAXkamC-jVU3sj5j-2-10" value="SOCI" style="shape=image;html=1;verticalAlign=top;verticalLabelPosition=bottom;labelBackgroundColor=#ffffff;imageAspect=0;aspect=fixed;image=https://cdn1.iconfinder.com/data/icons/ionicons-fill-vol-2/512/logo-web-component-128.png;fillStyle=solid;fillColor=none;" vertex="1" parent="RBjAXkamC-jVU3sj5j-2-1">
          <mxGeometry x="250" y="792.5" width="40" height="40" as="geometry" />
        </mxCell>
        <mxCell id="RBjAXkamC-jVU3sj5j-2-11" style="rounded=0;orthogonalLoop=1;jettySize=auto;html=1;exitX=0.095;exitY=-0.002;exitDx=0;exitDy=0;exitPerimeter=0;" edge="1" parent="RBjAXkamC-jVU3sj5j-2-1" source="RBjAXkamC-jVU3sj5j-2-51" target="RBjAXkamC-jVU3sj5j-2-38">
          <mxGeometry relative="1" as="geometry">
            <mxPoint x="80" y="610" as="sourcePoint" />
          </mxGeometry>
        </mxCell>
        <mxCell id="RBjAXkamC-jVU3sj5j-2-12" value="News" style="edgeLabel;html=1;align=center;verticalAlign=middle;resizable=0;points=[];" vertex="1" connectable="0" parent="RBjAXkamC-jVU3sj5j-2-11">
          <mxGeometry x="0.5533" y="1" relative="1" as="geometry">
            <mxPoint as="offset" />
          </mxGeometry>
        </mxCell>
        <mxCell id="RBjAXkamC-jVU3sj5j-2-14" style="edgeStyle=none;rounded=0;orthogonalLoop=1;jettySize=auto;html=1;" edge="1" parent="RBjAXkamC-jVU3sj5j-2-1" source="RBjAXkamC-jVU3sj5j-2-17" target="RBjAXkamC-jVU3sj5j-2-37">
          <mxGeometry relative="1" as="geometry" />
        </mxCell>
        <mxCell id="RBjAXkamC-jVU3sj5j-2-15" value="Avvenuto &lt;br&gt;Pagamento" style="edgeLabel;html=1;align=center;verticalAlign=middle;resizable=0;points=[];" vertex="1" connectable="0" parent="RBjAXkamC-jVU3sj5j-2-14">
          <mxGeometry x="0.2353" relative="1" as="geometry">
            <mxPoint as="offset" />
          </mxGeometry>
        </mxCell>
        <mxCell id="RBjAXkamC-jVU3sj5j-2-16" style="edgeStyle=orthogonalEdgeStyle;rounded=0;orthogonalLoop=1;jettySize=auto;html=1;" edge="1" parent="RBjAXkamC-jVU3sj5j-2-1" source="RBjAXkamC-jVU3sj5j-2-17" target="RBjAXkamC-jVU3sj5j-2-49">
          <mxGeometry relative="1" as="geometry" />
        </mxCell>
        <mxCell id="RBjAXkamC-jVU3sj5j-2-17" value="ECOMMERCE" style="shape=image;html=1;verticalAlign=top;verticalLabelPosition=bottom;labelBackgroundColor=#ffffff;imageAspect=0;aspect=fixed;image=https://cdn1.iconfinder.com/data/icons/ionicons-fill-vol-2/512/logo-web-component-128.png;fillStyle=solid;fillColor=none;" vertex="1" parent="RBjAXkamC-jVU3sj5j-2-1">
          <mxGeometry x="170" y="912.5" width="40" height="40" as="geometry" />
        </mxCell>
        <mxCell id="RBjAXkamC-jVU3sj5j-2-18" value="ACCOUNT" style="shape=image;html=1;verticalAlign=top;verticalLabelPosition=bottom;labelBackgroundColor=#ffffff;imageAspect=0;aspect=fixed;image=https://cdn1.iconfinder.com/data/icons/ionicons-fill-vol-2/512/logo-web-component-128.png;fillStyle=solid;fillColor=none;" vertex="1" parent="RBjAXkamC-jVU3sj5j-2-1">
          <mxGeometry x="250" y="722.5" width="40" height="40" as="geometry" />
        </mxCell>
        <mxCell id="RBjAXkamC-jVU3sj5j-2-19" value="NOTE SPESA" style="shape=image;html=1;verticalAlign=top;verticalLabelPosition=bottom;labelBackgroundColor=#ffffff;imageAspect=0;aspect=fixed;image=https://cdn1.iconfinder.com/data/icons/ionicons-fill-vol-2/512/logo-web-component-128.png;fillStyle=solid;fillColor=none;" vertex="1" parent="RBjAXkamC-jVU3sj5j-2-1">
          <mxGeometry x="299" y="872.5" width="40" height="40" as="geometry" />
        </mxCell>
        <mxCell id="RBjAXkamC-jVU3sj5j-2-20" style="edgeStyle=none;rounded=0;orthogonalLoop=1;jettySize=auto;html=1;" edge="1" parent="RBjAXkamC-jVU3sj5j-2-1" target="RBjAXkamC-jVU3sj5j-2-4">
          <mxGeometry relative="1" as="geometry">
            <mxPoint x="414" y="662.5" as="sourcePoint" />
          </mxGeometry>
        </mxCell>
        <mxCell id="RBjAXkamC-jVU3sj5j-2-21" style="edgeStyle=none;rounded=0;orthogonalLoop=1;jettySize=auto;html=1;entryX=1;entryY=0.5;entryDx=0;entryDy=0;" edge="1" parent="RBjAXkamC-jVU3sj5j-2-1" source="RBjAXkamC-jVU3sj5j-2-63" target="RBjAXkamC-jVU3sj5j-2-10">
          <mxGeometry relative="1" as="geometry">
            <mxPoint x="396.4000000000001" y="672.5" as="sourcePoint" />
          </mxGeometry>
        </mxCell>
        <mxCell id="RBjAXkamC-jVU3sj5j-2-22" style="edgeStyle=none;rounded=0;orthogonalLoop=1;jettySize=auto;html=1;entryX=0.35;entryY=0.21;entryDx=0;entryDy=0;entryPerimeter=0;startArrow=none;startFill=0;endArrow=classic;endFill=1;" edge="1" parent="RBjAXkamC-jVU3sj5j-2-1" source="RBjAXkamC-jVU3sj5j-2-23" target="RBjAXkamC-jVU3sj5j-2-63">
          <mxGeometry relative="1" as="geometry" />
        </mxCell>
        <mxCell id="RBjAXkamC-jVU3sj5j-2-23" value="ACCREDITO" style="shape=providedRequiredInterface;html=1;verticalLabelPosition=bottom;sketch=0;fillStyle=solid;fillColor=none;rotation=0;" vertex="1" parent="RBjAXkamC-jVU3sj5j-2-1">
          <mxGeometry x="414" y="280" width="20" height="20" as="geometry" />
        </mxCell>
        <mxCell id="RBjAXkamC-jVU3sj5j-2-24" style="edgeStyle=none;rounded=0;orthogonalLoop=1;jettySize=auto;html=1;entryX=0.5;entryY=0;entryDx=0;entryDy=0;" edge="1" parent="RBjAXkamC-jVU3sj5j-2-1" source="RBjAXkamC-jVU3sj5j-2-62" target="RBjAXkamC-jVU3sj5j-2-18">
          <mxGeometry relative="1" as="geometry">
            <mxPoint x="270" y="672.5" as="sourcePoint" />
          </mxGeometry>
        </mxCell>
        <mxCell id="RBjAXkamC-jVU3sj5j-2-25" style="edgeStyle=none;rounded=0;orthogonalLoop=1;jettySize=auto;html=1;startArrow=none;startFill=0;endArrow=classic;endFill=1;entryX=0.589;entryY=0.05;entryDx=0;entryDy=0;entryPerimeter=0;" edge="1" parent="RBjAXkamC-jVU3sj5j-2-1" source="RBjAXkamC-jVU3sj5j-2-26" target="RBjAXkamC-jVU3sj5j-2-62">
          <mxGeometry relative="1" as="geometry">
            <mxPoint x="220" y="650" as="targetPoint" />
          </mxGeometry>
        </mxCell>
        <mxCell id="RBjAXkamC-jVU3sj5j-2-26" value="LOGIN" style="shape=providedRequiredInterface;html=1;verticalLabelPosition=bottom;sketch=0;fillStyle=solid;fillColor=none;rotation=0;" vertex="1" parent="RBjAXkamC-jVU3sj5j-2-1">
          <mxGeometry x="281.63" y="280" width="20" height="20" as="geometry" />
        </mxCell>
        <mxCell id="RBjAXkamC-jVU3sj5j-2-27" style="edgeStyle=none;rounded=0;orthogonalLoop=1;jettySize=auto;html=1;entryX=0.5;entryY=0;entryDx=0;entryDy=0;startArrow=none;startFill=0;endArrow=classic;endFill=1;" edge="1" parent="RBjAXkamC-jVU3sj5j-2-1" source="RBjAXkamC-jVU3sj5j-2-28" target="RBjAXkamC-jVU3sj5j-2-57">
          <mxGeometry relative="1" as="geometry" />
        </mxCell>
        <mxCell id="RBjAXkamC-jVU3sj5j-2-28" value="CATALOGO" style="shape=providedRequiredInterface;html=1;verticalLabelPosition=bottom;sketch=0;fillStyle=solid;fillColor=none;rotation=0;" vertex="1" parent="RBjAXkamC-jVU3sj5j-2-1">
          <mxGeometry x="339" y="280" width="20" height="20" as="geometry" />
        </mxCell>
        <mxCell id="RBjAXkamC-jVU3sj5j-2-29" style="rounded=0;orthogonalLoop=1;jettySize=auto;html=1;" edge="1" parent="RBjAXkamC-jVU3sj5j-2-1" source="RBjAXkamC-jVU3sj5j-2-32" target="RBjAXkamC-jVU3sj5j-2-23">
          <mxGeometry relative="1" as="geometry" />
        </mxCell>
        <mxCell id="RBjAXkamC-jVU3sj5j-2-30" style="edgeStyle=none;rounded=0;orthogonalLoop=1;jettySize=auto;html=1;" edge="1" parent="RBjAXkamC-jVU3sj5j-2-1" source="RBjAXkamC-jVU3sj5j-2-32" target="RBjAXkamC-jVU3sj5j-2-26">
          <mxGeometry relative="1" as="geometry" />
        </mxCell>
        <mxCell id="RBjAXkamC-jVU3sj5j-2-31" style="edgeStyle=none;rounded=0;orthogonalLoop=1;jettySize=auto;html=1;" edge="1" parent="RBjAXkamC-jVU3sj5j-2-1" source="RBjAXkamC-jVU3sj5j-2-32" target="RBjAXkamC-jVU3sj5j-2-28">
          <mxGeometry relative="1" as="geometry" />
        </mxCell>
        <mxCell id="RBjAXkamC-jVU3sj5j-2-32" value="PLPL" style="outlineConnect=0;dashed=0;verticalLabelPosition=bottom;verticalAlign=top;align=center;html=1;shape=mxgraph.aws3.direct_connect;fillColor=#F58536;gradientColor=none;fillStyle=solid;" vertex="1" parent="RBjAXkamC-jVU3sj5j-2-1">
          <mxGeometry x="331.63" y="90" width="34.75" height="43.5" as="geometry" />
        </mxCell>
        <mxCell id="RBjAXkamC-jVU3sj5j-2-33" style="edgeStyle=none;rounded=0;orthogonalLoop=1;jettySize=auto;html=1;entryX=0.653;entryY=0.073;entryDx=0;entryDy=0;entryPerimeter=0;" edge="1" parent="RBjAXkamC-jVU3sj5j-2-1" source="RBjAXkamC-jVU3sj5j-2-36" target="RBjAXkamC-jVU3sj5j-2-26">
          <mxGeometry relative="1" as="geometry" />
        </mxCell>
        <mxCell id="RBjAXkamC-jVU3sj5j-2-34" style="edgeStyle=none;rounded=0;orthogonalLoop=1;jettySize=auto;html=1;" edge="1" parent="RBjAXkamC-jVU3sj5j-2-1" source="RBjAXkamC-jVU3sj5j-2-36" target="RBjAXkamC-jVU3sj5j-2-43">
          <mxGeometry relative="1" as="geometry" />
        </mxCell>
        <mxCell id="RBjAXkamC-jVU3sj5j-2-35" style="edgeStyle=none;rounded=0;orthogonalLoop=1;jettySize=auto;html=1;entryX=0.821;entryY=0.073;entryDx=0;entryDy=0;entryPerimeter=0;" edge="1" parent="RBjAXkamC-jVU3sj5j-2-1" source="RBjAXkamC-jVU3sj5j-2-36" target="RBjAXkamC-jVU3sj5j-2-46">
          <mxGeometry relative="1" as="geometry" />
        </mxCell>
        <mxCell id="RBjAXkamC-jVU3sj5j-2-36" value="GDL" style="outlineConnect=0;dashed=0;verticalLabelPosition=bottom;verticalAlign=top;align=center;html=1;shape=mxgraph.aws3.service_catalog;fillColor=#759C3E;gradientColor=none;fillStyle=solid;" vertex="1" parent="RBjAXkamC-jVU3sj5j-2-1">
          <mxGeometry x="215.63" y="85.13" width="41.75" height="53.25" as="geometry" />
        </mxCell>
        <mxCell id="RBjAXkamC-jVU3sj5j-2-37" value="ISBN" style="outlineConnect=0;dashed=0;verticalLabelPosition=bottom;verticalAlign=top;align=center;html=1;shape=mxgraph.aws3.device_farm;fillColor=#AD688B;gradientColor=none;fillStyle=solid;" vertex="1" parent="RBjAXkamC-jVU3sj5j-2-1">
          <mxGeometry x="75.51" y="1050" width="50" height="45" as="geometry" />
        </mxCell>
        <mxCell id="RBjAXkamC-jVU3sj5j-2-38" value="MAGNEWS" style="outlineConnect=0;dashed=0;verticalLabelPosition=bottom;verticalAlign=top;align=center;html=1;shape=mxgraph.aws3.snowball;fillColor=#E05243;gradientColor=none;fillStyle=solid;" vertex="1" parent="RBjAXkamC-jVU3sj5j-2-1">
          <mxGeometry x="97" y="85.13" width="45.25" height="45.5" as="geometry" />
        </mxCell>
        <mxCell id="RBjAXkamC-jVU3sj5j-2-39" style="edgeStyle=none;rounded=0;orthogonalLoop=1;jettySize=auto;html=1;entryX=1;entryY=0.5;entryDx=0;entryDy=0;entryPerimeter=0;" edge="1" parent="RBjAXkamC-jVU3sj5j-2-1" source="RBjAXkamC-jVU3sj5j-2-40" target="RBjAXkamC-jVU3sj5j-2-67">
          <mxGeometry relative="1" as="geometry">
            <mxPoint x="620" y="630" as="targetPoint" />
          </mxGeometry>
        </mxCell>
        <mxCell id="RBjAXkamC-jVU3sj5j-2-40" value="INFINITY" style="outlineConnect=0;dashed=0;verticalLabelPosition=bottom;verticalAlign=top;align=center;html=1;shape=mxgraph.aws3.opsworks;fillColor=#759C3E;gradientColor=none;fillStyle=solid;" vertex="1" parent="RBjAXkamC-jVU3sj5j-2-1">
          <mxGeometry x="720" y="682.5" width="40" height="40" as="geometry" />
        </mxCell>
        <mxCell id="RBjAXkamC-jVU3sj5j-2-41" style="edgeStyle=none;rounded=0;orthogonalLoop=1;jettySize=auto;html=1;entryX=0;entryY=0.5;entryDx=0;entryDy=0;" edge="1" parent="RBjAXkamC-jVU3sj5j-2-1" source="RBjAXkamC-jVU3sj5j-2-64" target="RBjAXkamC-jVU3sj5j-2-10">
          <mxGeometry relative="1" as="geometry">
            <mxPoint x="218.74266666666676" y="672.5" as="sourcePoint" />
          </mxGeometry>
        </mxCell>
        <mxCell id="RBjAXkamC-jVU3sj5j-2-42" style="edgeStyle=none;rounded=0;orthogonalLoop=1;jettySize=auto;html=1;startArrow=none;startFill=0;endArrow=classic;endFill=1;" edge="1" parent="RBjAXkamC-jVU3sj5j-2-1" source="RBjAXkamC-jVU3sj5j-2-43" target="RBjAXkamC-jVU3sj5j-2-64">
          <mxGeometry relative="1" as="geometry" />
        </mxCell>
        <mxCell id="RBjAXkamC-jVU3sj5j-2-43" value="FUORI&lt;br&gt;CATALOGO" style="shape=providedRequiredInterface;html=1;verticalLabelPosition=bottom;sketch=0;fillStyle=solid;fillColor=none;rotation=0;" vertex="1" parent="RBjAXkamC-jVU3sj5j-2-1">
          <mxGeometry x="226.51" y="280" width="20" height="20" as="geometry" />
        </mxCell>
        <mxCell id="RBjAXkamC-jVU3sj5j-2-45" style="edgeStyle=none;rounded=0;orthogonalLoop=1;jettySize=auto;html=1;startArrow=none;startFill=0;endArrow=classic;endFill=1;" edge="1" parent="RBjAXkamC-jVU3sj5j-2-1" source="RBjAXkamC-jVU3sj5j-2-46" target="8XQaDBiX9INuP8e29Lkj-0">
          <mxGeometry relative="1" as="geometry" />
        </mxCell>
        <mxCell id="RBjAXkamC-jVU3sj5j-2-46" value="NEWSLETTER" style="shape=providedRequiredInterface;html=1;verticalLabelPosition=bottom;sketch=0;fillStyle=solid;fillColor=none;rotation=0;" vertex="1" parent="RBjAXkamC-jVU3sj5j-2-1">
          <mxGeometry x="153.25" y="280" width="20" height="20" as="geometry" />
        </mxCell>
        <mxCell id="RBjAXkamC-jVU3sj5j-2-47" style="edgeStyle=none;rounded=0;orthogonalLoop=1;jettySize=auto;html=1;entryX=1;entryY=0.5;entryDx=0;entryDy=0;" edge="1" parent="RBjAXkamC-jVU3sj5j-2-1" source="RBjAXkamC-jVU3sj5j-2-48" target="RBjAXkamC-jVU3sj5j-2-17">
          <mxGeometry relative="1" as="geometry" />
        </mxCell>
        <mxCell id="RBjAXkamC-jVU3sj5j-2-48" value="WS &lt;br&gt;ORDINE" style="shape=providedRequiredInterface;html=1;verticalLabelPosition=bottom;sketch=0;fillStyle=solid;fillColor=none;rotation=0;labelPosition=center;align=center;verticalAlign=top;" vertex="1" parent="RBjAXkamC-jVU3sj5j-2-1">
          <mxGeometry x="550" y="650" width="20" height="20" as="geometry" />
        </mxCell>
        <mxCell id="RBjAXkamC-jVU3sj5j-2-49" value="Banca Sella" style="outlineConnect=0;dashed=0;verticalLabelPosition=bottom;verticalAlign=top;align=center;html=1;shape=mxgraph.aws3.cart;fillColor=#5294CF;gradientColor=none;fillStyle=solid;" vertex="1" parent="RBjAXkamC-jVU3sj5j-2-1">
          <mxGeometry x="10" y="90.69" width="50" height="42.12" as="geometry" />
        </mxCell>
        <mxCell id="RBjAXkamC-jVU3sj5j-2-50" style="edgeStyle=none;rounded=0;orthogonalLoop=1;jettySize=auto;html=1;entryX=0.398;entryY=0.17;entryDx=0;entryDy=0;entryPerimeter=0;startArrow=none;startFill=0;endArrow=classic;endFill=1;" edge="1" parent="RBjAXkamC-jVU3sj5j-2-1" source="RBjAXkamC-jVU3sj5j-2-51" target="RBjAXkamC-jVU3sj5j-2-62">
          <mxGeometry relative="1" as="geometry" />
        </mxCell>
        <mxCell id="RBjAXkamC-jVU3sj5j-2-51" value="MEDRA" style="whiteSpace=wrap;html=1;fillStyle=solid;fillColor=none;labelPosition=center;verticalLabelPosition=bottom;align=center;verticalAlign=top;" vertex="1" parent="RBjAXkamC-jVU3sj5j-2-1">
          <mxGeometry x="75.51" y="290" width="524.49" height="264.49" as="geometry" />
        </mxCell>
        <mxCell id="RBjAXkamC-jVU3sj5j-2-52" style="edgeStyle=none;rounded=0;orthogonalLoop=1;jettySize=auto;html=1;exitX=0;exitY=0.5;exitDx=0;exitDy=0;exitPerimeter=0;" edge="1" parent="RBjAXkamC-jVU3sj5j-2-1">
          <mxGeometry relative="1" as="geometry">
            <mxPoint x="206.51" y="662.5" as="sourcePoint" />
            <mxPoint x="206.51" y="662.5" as="targetPoint" />
          </mxGeometry>
        </mxCell>
        <mxCell id="RBjAXkamC-jVU3sj5j-2-53" style="rounded=0;orthogonalLoop=1;jettySize=auto;html=1;entryX=1;entryY=0.5;entryDx=0;entryDy=0;entryPerimeter=0;exitX=0.5;exitY=1;exitDx=0;exitDy=0;" edge="1" parent="RBjAXkamC-jVU3sj5j-2-1" source="RBjAXkamC-jVU3sj5j-2-2" target="RBjAXkamC-jVU3sj5j-2-59">
          <mxGeometry relative="1" as="geometry" />
        </mxCell>
        <mxCell id="RBjAXkamC-jVU3sj5j-2-54" style="rounded=0;orthogonalLoop=1;jettySize=auto;html=1;exitX=0.5;exitY=1;exitDx=0;exitDy=0;" edge="1" parent="RBjAXkamC-jVU3sj5j-2-1" source="RBjAXkamC-jVU3sj5j-2-57" target="RBjAXkamC-jVU3sj5j-2-55">
          <mxGeometry relative="1" as="geometry" />
        </mxCell>
        <mxCell id="RBjAXkamC-jVU3sj5j-2-55" value="AIE" style="shape=providedRequiredInterface;html=1;verticalLabelPosition=bottom;sketch=0;fillStyle=solid;fillColor=none;rotation=0;" vertex="1" parent="RBjAXkamC-jVU3sj5j-2-1">
          <mxGeometry x="400" y="650" width="20" height="20" as="geometry" />
        </mxCell>
        <mxCell id="RBjAXkamC-jVU3sj5j-2-56" style="edgeStyle=none;rounded=0;orthogonalLoop=1;jettySize=auto;html=1;startArrow=classic;startFill=1;endArrow=none;endFill=0;" edge="1" parent="RBjAXkamC-jVU3sj5j-2-1" source="RBjAXkamC-jVU3sj5j-2-57" target="RBjAXkamC-jVU3sj5j-2-59">
          <mxGeometry relative="1" as="geometry" />
        </mxCell>
        <mxCell id="RBjAXkamC-jVU3sj5j-2-57" value="" style="shape=datastore;whiteSpace=wrap;html=1;fillStyle=solid;fillColor=none;" vertex="1" parent="RBjAXkamC-jVU3sj5j-2-1">
          <mxGeometry x="301.63" y="400" width="30" height="40" as="geometry" />
        </mxCell>
        <mxCell id="RBjAXkamC-jVU3sj5j-2-58" style="edgeStyle=none;rounded=0;orthogonalLoop=1;jettySize=auto;html=1;startArrow=classic;startFill=1;endArrow=none;endFill=0;exitX=1;exitY=0.5;exitDx=0;exitDy=0;entryX=0;entryY=0.5;entryDx=0;entryDy=0;entryPerimeter=0;" edge="1" parent="RBjAXkamC-jVU3sj5j-2-1" target="RBjAXkamC-jVU3sj5j-2-59">
          <mxGeometry relative="1" as="geometry">
            <mxPoint x="560" y="355" as="sourcePoint" />
            <mxPoint x="740" y="320" as="targetPoint" />
          </mxGeometry>
        </mxCell>
        <mxCell id="RBjAXkamC-jVU3sj5j-2-59" value="AIE" style="shape=providedRequiredInterface;html=1;verticalLabelPosition=bottom;sketch=0;fillStyle=solid;fillColor=none;rotation=0;" vertex="1" parent="RBjAXkamC-jVU3sj5j-2-1">
          <mxGeometry x="590" y="412.25" width="20" height="20" as="geometry" />
        </mxCell>
        <mxCell id="RBjAXkamC-jVU3sj5j-2-60" value="SINCRONIZZAZIONE" style="shape=providedRequiredInterface;html=1;verticalLabelPosition=bottom;sketch=0;fillStyle=solid;fillColor=none;rotation=0;" vertex="1" parent="RBjAXkamC-jVU3sj5j-2-1">
          <mxGeometry x="319" y="650" width="20" height="20" as="geometry" />
        </mxCell>
        <mxCell id="RBjAXkamC-jVU3sj5j-2-61" style="rounded=0;orthogonalLoop=1;jettySize=auto;html=1;exitX=0.5;exitY=1;exitDx=0;exitDy=0;entryX=0.358;entryY=0.01;entryDx=0;entryDy=0;entryPerimeter=0;" edge="1" parent="RBjAXkamC-jVU3sj5j-2-1" source="RBjAXkamC-jVU3sj5j-2-57" target="RBjAXkamC-jVU3sj5j-2-60">
          <mxGeometry relative="1" as="geometry">
            <mxPoint x="240.0000000000001" y="440" as="sourcePoint" />
            <mxPoint x="329.1259090909092" y="650" as="targetPoint" />
          </mxGeometry>
        </mxCell>
        <mxCell id="RBjAXkamC-jVU3sj5j-2-62" value="LOGIN" style="shape=providedRequiredInterface;html=1;verticalLabelPosition=bottom;sketch=0;fillStyle=solid;fillColor=none;rotation=0;" vertex="1" parent="RBjAXkamC-jVU3sj5j-2-1">
          <mxGeometry x="224.63" y="650" width="20" height="20" as="geometry" />
        </mxCell>
        <mxCell id="RBjAXkamC-jVU3sj5j-2-63" value="ACCREDITO" style="shape=providedRequiredInterface;html=1;verticalLabelPosition=bottom;sketch=0;fillStyle=solid;fillColor=none;rotation=0;" vertex="1" parent="RBjAXkamC-jVU3sj5j-2-1">
          <mxGeometry x="475" y="650" width="20" height="20" as="geometry" />
        </mxCell>
        <mxCell id="RBjAXkamC-jVU3sj5j-2-64" value="FUORI&lt;br&gt;CATALOGO" style="shape=providedRequiredInterface;html=1;verticalLabelPosition=bottom;sketch=0;fillStyle=solid;fillColor=none;rotation=0;" vertex="1" parent="RBjAXkamC-jVU3sj5j-2-1">
          <mxGeometry x="160.25" y="650" width="20" height="20" as="geometry" />
        </mxCell>
        <mxCell id="RBjAXkamC-jVU3sj5j-2-66" style="edgeStyle=orthogonalEdgeStyle;rounded=0;orthogonalLoop=1;jettySize=auto;html=1;entryX=0.56;entryY=0.25;entryDx=0;entryDy=0;entryPerimeter=0;startArrow=none;startFill=0;endArrow=classic;endFill=1;" edge="1" parent="RBjAXkamC-jVU3sj5j-2-1" source="RBjAXkamC-jVU3sj5j-2-67" target="RBjAXkamC-jVU3sj5j-2-48">
          <mxGeometry relative="1" as="geometry">
            <Array as="points">
              <mxPoint x="580" y="520" />
              <mxPoint x="580" y="655" />
            </Array>
          </mxGeometry>
        </mxCell>
        <mxCell id="RBjAXkamC-jVU3sj5j-2-67" value="WS &lt;br&gt;ORDINE" style="shape=providedRequiredInterface;html=1;verticalLabelPosition=top;sketch=0;fillStyle=solid;fillColor=none;rotation=0;labelPosition=center;align=center;verticalAlign=bottom;" vertex="1" parent="RBjAXkamC-jVU3sj5j-2-1">
          <mxGeometry x="590" y="510" width="20" height="20" as="geometry" />
        </mxCell>
        <mxCell id="RBjAXkamC-jVU3sj5j-2-68" style="edgeStyle=orthogonalEdgeStyle;rounded=0;orthogonalLoop=1;jettySize=auto;html=1;entryX=0.5;entryY=1;entryDx=0;entryDy=0;entryPerimeter=0;" edge="1" parent="RBjAXkamC-jVU3sj5j-2-1" target="RBjAXkamC-jVU3sj5j-2-40">
          <mxGeometry relative="1" as="geometry">
            <mxPoint x="186.20833333333326" y="962.5" as="sourcePoint" />
            <mxPoint x="132.765625" y="1040" as="targetPoint" />
            <Array as="points">
              <mxPoint x="186" y="1060" />
              <mxPoint x="740" y="1060" />
            </Array>
          </mxGeometry>
        </mxCell>
        <mxCell id="RBjAXkamC-jVU3sj5j-2-69" value="Avvenuto &lt;br&gt;Pagamento" style="edgeLabel;html=1;align=center;verticalAlign=middle;resizable=0;points=[];" vertex="1" connectable="0" parent="RBjAXkamC-jVU3sj5j-2-68">
          <mxGeometry x="0.2353" relative="1" as="geometry">
            <mxPoint as="offset" />
          </mxGeometry>
        </mxCell>
        <mxCell id="RBjAXkamC-jVU3sj5j-2-70" value="" style="shape=image;html=1;verticalAlign=top;verticalLabelPosition=bottom;labelBackgroundColor=#ffffff;imageAspect=0;aspect=fixed;image=https://cdn3.iconfinder.com/data/icons/internet-and-web-4/78/internt_web_technology-16-128.png;fillStyle=solid;fillColor=none;" vertex="1" parent="RBjAXkamC-jVU3sj5j-2-1">
          <mxGeometry x="530" y="340" width="30" height="30" as="geometry" />
        </mxCell>
        <mxCell id="RBjAXkamC-jVU3sj5j-2-71" value="" style="shape=image;html=1;verticalAlign=top;verticalLabelPosition=bottom;labelBackgroundColor=#ffffff;imageAspect=0;aspect=fixed;image=https://cdn3.iconfinder.com/data/icons/internet-and-web-4/78/internt_web_technology-16-128.png;fillStyle=solid;fillColor=none;" vertex="1" parent="RBjAXkamC-jVU3sj5j-2-1">
          <mxGeometry x="530" y="460" width="30" height="30" as="geometry" />
        </mxCell>
        <mxCell id="8XQaDBiX9INuP8e29Lkj-0" value="NEWS" style="shape=image;html=1;verticalAlign=top;verticalLabelPosition=bottom;labelBackgroundColor=#ffffff;imageAspect=0;aspect=fixed;image=https://cdn3.iconfinder.com/data/icons/internet-and-web-4/78/internt_web_technology-16-128.png;fillStyle=solid;fillColor=none;" vertex="1" parent="RBjAXkamC-jVU3sj5j-2-1">
          <mxGeometry x="155.25" y="440" width="30" height="30" as="geometry" />
        </mxCell>
      </root>
    </mxGraphModel>
  </diagram>
  <diagram name="Fase V" id="JPigE61Ul_i9zeRxBqw5">
    <mxGraphModel dx="1050" dy="491" grid="1" gridSize="10" guides="1" tooltips="1" connect="1" arrows="1" fold="1" page="1" pageScale="1" pageWidth="827" pageHeight="1169" math="0" shadow="0">
      <root>
        <mxCell id="kaCDGykt8sn5aObhG7ok-0" />
        <mxCell id="kaCDGykt8sn5aObhG7ok-1" parent="kaCDGykt8sn5aObhG7ok-0" />
        <mxCell id="kaCDGykt8sn5aObhG7ok-2" value="PROVIDER CMS" style="whiteSpace=wrap;html=1;aspect=fixed;fillStyle=solid;fillColor=none;labelPosition=center;verticalLabelPosition=bottom;align=center;verticalAlign=top;" vertex="1" parent="kaCDGykt8sn5aObhG7ok-1">
          <mxGeometry x="640" y="85.13" width="151" height="151" as="geometry" />
        </mxCell>
        <mxCell id="kaCDGykt8sn5aObhG7ok-3" value="DNN" style="whiteSpace=wrap;html=1;fillColor=none;verticalAlign=top;labelPosition=center;verticalLabelPosition=bottom;align=center;" vertex="1" parent="kaCDGykt8sn5aObhG7ok-1">
          <mxGeometry x="440" y="662.5" width="150" height="340" as="geometry" />
        </mxCell>
        <mxCell id="kaCDGykt8sn5aObhG7ok-4" value="DNN+SKEDA" style="whiteSpace=wrap;html=1;fillColor=none;verticalAlign=top;labelPosition=center;verticalLabelPosition=bottom;align=center;" vertex="1" parent="kaCDGykt8sn5aObhG7ok-1">
          <mxGeometry x="50" y="662.5" width="390" height="340" as="geometry" />
        </mxCell>
        <mxCell id="kaCDGykt8sn5aObhG7ok-5" value="www.isbn.it" style="sketch=0;pointerEvents=1;shadow=0;dashed=0;html=1;strokeColor=none;fillColor=#505050;labelPosition=center;verticalLabelPosition=bottom;verticalAlign=top;outlineConnect=0;align=center;shape=mxgraph.office.sites.website;" vertex="1" parent="kaCDGykt8sn5aObhG7ok-1">
          <mxGeometry x="660" y="96.75" width="30" height="30" as="geometry" />
        </mxCell>
        <mxCell id="kaCDGykt8sn5aObhG7ok-6" value="www.aie.it" style="sketch=0;pointerEvents=1;shadow=0;dashed=0;html=1;strokeColor=none;fillColor=#505050;labelPosition=center;verticalLabelPosition=bottom;verticalAlign=top;outlineConnect=0;align=center;shape=mxgraph.office.sites.website;" vertex="1" parent="kaCDGykt8sn5aObhG7ok-1">
          <mxGeometry x="720" y="160" width="40" height="30" as="geometry" />
        </mxCell>
        <mxCell id="kaCDGykt8sn5aObhG7ok-7" value="network.aie.it" style="sketch=0;pointerEvents=1;shadow=0;dashed=0;html=1;strokeColor=none;fillColor=#505050;labelPosition=center;verticalLabelPosition=bottom;verticalAlign=top;outlineConnect=0;align=center;shape=mxgraph.office.sites.site_team;" vertex="1" parent="kaCDGykt8sn5aObhG7ok-1">
          <mxGeometry x="420" y="812.5" width="40" height="30" as="geometry" />
        </mxCell>
        <mxCell id="kaCDGykt8sn5aObhG7ok-8" value="users.aie.it" style="sketch=0;pointerEvents=1;shadow=0;dashed=0;html=1;strokeColor=none;fillColor=#505050;labelPosition=center;verticalLabelPosition=bottom;verticalAlign=top;outlineConnect=0;align=center;shape=mxgraph.office.sites.site_team;" vertex="1" parent="kaCDGykt8sn5aObhG7ok-1">
          <mxGeometry x="420" y="872.5" width="40" height="30" as="geometry" />
        </mxCell>
        <mxCell id="kaCDGykt8sn5aObhG7ok-9" value="config.aie.it" style="sketch=0;pointerEvents=1;shadow=0;dashed=0;html=1;strokeColor=none;fillColor=#505050;labelPosition=center;verticalLabelPosition=bottom;verticalAlign=top;outlineConnect=0;align=center;shape=mxgraph.office.sites.site_team;" vertex="1" parent="kaCDGykt8sn5aObhG7ok-1">
          <mxGeometry x="420" y="932.5" width="40" height="30" as="geometry" />
        </mxCell>
        <mxCell id="kaCDGykt8sn5aObhG7ok-10" value="SOCI" style="shape=image;html=1;verticalAlign=top;verticalLabelPosition=bottom;labelBackgroundColor=#ffffff;imageAspect=0;aspect=fixed;image=https://cdn1.iconfinder.com/data/icons/ionicons-fill-vol-2/512/logo-web-component-128.png;fillStyle=solid;fillColor=none;" vertex="1" parent="kaCDGykt8sn5aObhG7ok-1">
          <mxGeometry x="250" y="792.5" width="40" height="40" as="geometry" />
        </mxCell>
        <mxCell id="kaCDGykt8sn5aObhG7ok-11" style="rounded=0;orthogonalLoop=1;jettySize=auto;html=1;exitX=0.095;exitY=-0.002;exitDx=0;exitDy=0;exitPerimeter=0;" edge="1" parent="kaCDGykt8sn5aObhG7ok-1" source="kaCDGykt8sn5aObhG7ok-49" target="kaCDGykt8sn5aObhG7ok-37">
          <mxGeometry relative="1" as="geometry">
            <mxPoint x="80" y="610" as="sourcePoint" />
          </mxGeometry>
        </mxCell>
        <mxCell id="kaCDGykt8sn5aObhG7ok-12" value="News" style="edgeLabel;html=1;align=center;verticalAlign=middle;resizable=0;points=[];" vertex="1" connectable="0" parent="kaCDGykt8sn5aObhG7ok-11">
          <mxGeometry x="0.5533" y="1" relative="1" as="geometry">
            <mxPoint as="offset" />
          </mxGeometry>
        </mxCell>
        <mxCell id="kaCDGykt8sn5aObhG7ok-13" style="edgeStyle=none;rounded=0;orthogonalLoop=1;jettySize=auto;html=1;" edge="1" parent="kaCDGykt8sn5aObhG7ok-1" source="uNzZQP2M1dLK-WzPa6DE-0" target="kaCDGykt8sn5aObhG7ok-36">
          <mxGeometry relative="1" as="geometry" />
        </mxCell>
        <mxCell id="kaCDGykt8sn5aObhG7ok-14" value="Avvenuto &lt;br&gt;Pagamento" style="edgeLabel;html=1;align=center;verticalAlign=middle;resizable=0;points=[];" vertex="1" connectable="0" parent="kaCDGykt8sn5aObhG7ok-13">
          <mxGeometry x="0.2353" relative="1" as="geometry">
            <mxPoint as="offset" />
          </mxGeometry>
        </mxCell>
        <mxCell id="kaCDGykt8sn5aObhG7ok-15" style="edgeStyle=orthogonalEdgeStyle;rounded=0;orthogonalLoop=1;jettySize=auto;html=1;" edge="1" parent="kaCDGykt8sn5aObhG7ok-1" source="uNzZQP2M1dLK-WzPa6DE-0" target="kaCDGykt8sn5aObhG7ok-47">
          <mxGeometry relative="1" as="geometry">
            <mxPoint x="130" y="590" as="sourcePoint" />
          </mxGeometry>
        </mxCell>
        <mxCell id="kaCDGykt8sn5aObhG7ok-17" value="ACCOUNT" style="shape=image;html=1;verticalAlign=top;verticalLabelPosition=bottom;labelBackgroundColor=#ffffff;imageAspect=0;aspect=fixed;image=https://cdn1.iconfinder.com/data/icons/ionicons-fill-vol-2/512/logo-web-component-128.png;fillStyle=solid;fillColor=none;" vertex="1" parent="kaCDGykt8sn5aObhG7ok-1">
          <mxGeometry x="250" y="722.5" width="40" height="40" as="geometry" />
        </mxCell>
        <mxCell id="kaCDGykt8sn5aObhG7ok-18" value="NOTE SPESA" style="shape=image;html=1;verticalAlign=top;verticalLabelPosition=bottom;labelBackgroundColor=#ffffff;imageAspect=0;aspect=fixed;image=https://cdn1.iconfinder.com/data/icons/ionicons-fill-vol-2/512/logo-web-component-128.png;fillStyle=solid;fillColor=none;" vertex="1" parent="kaCDGykt8sn5aObhG7ok-1">
          <mxGeometry x="299" y="872.5" width="40" height="40" as="geometry" />
        </mxCell>
        <mxCell id="kaCDGykt8sn5aObhG7ok-19" style="edgeStyle=none;rounded=0;orthogonalLoop=1;jettySize=auto;html=1;" edge="1" parent="kaCDGykt8sn5aObhG7ok-1" target="kaCDGykt8sn5aObhG7ok-4">
          <mxGeometry relative="1" as="geometry">
            <mxPoint x="414" y="662.5" as="sourcePoint" />
          </mxGeometry>
        </mxCell>
        <mxCell id="kaCDGykt8sn5aObhG7ok-20" style="edgeStyle=none;rounded=0;orthogonalLoop=1;jettySize=auto;html=1;entryX=1;entryY=0.5;entryDx=0;entryDy=0;" edge="1" parent="kaCDGykt8sn5aObhG7ok-1" source="kaCDGykt8sn5aObhG7ok-61" target="kaCDGykt8sn5aObhG7ok-10">
          <mxGeometry relative="1" as="geometry">
            <mxPoint x="396.4000000000001" y="672.5" as="sourcePoint" />
          </mxGeometry>
        </mxCell>
        <mxCell id="kaCDGykt8sn5aObhG7ok-21" style="edgeStyle=none;rounded=0;orthogonalLoop=1;jettySize=auto;html=1;entryX=0.35;entryY=0.21;entryDx=0;entryDy=0;entryPerimeter=0;startArrow=none;startFill=0;endArrow=classic;endFill=1;" edge="1" parent="kaCDGykt8sn5aObhG7ok-1" source="kaCDGykt8sn5aObhG7ok-22" target="kaCDGykt8sn5aObhG7ok-61">
          <mxGeometry relative="1" as="geometry" />
        </mxCell>
        <mxCell id="kaCDGykt8sn5aObhG7ok-22" value="ACCREDITO" style="shape=providedRequiredInterface;html=1;verticalLabelPosition=bottom;sketch=0;fillStyle=solid;fillColor=none;rotation=0;" vertex="1" parent="kaCDGykt8sn5aObhG7ok-1">
          <mxGeometry x="414" y="280" width="20" height="20" as="geometry" />
        </mxCell>
        <mxCell id="kaCDGykt8sn5aObhG7ok-23" style="edgeStyle=none;rounded=0;orthogonalLoop=1;jettySize=auto;html=1;entryX=0.5;entryY=0;entryDx=0;entryDy=0;" edge="1" parent="kaCDGykt8sn5aObhG7ok-1" source="kaCDGykt8sn5aObhG7ok-60" target="kaCDGykt8sn5aObhG7ok-17">
          <mxGeometry relative="1" as="geometry">
            <mxPoint x="270" y="672.5" as="sourcePoint" />
          </mxGeometry>
        </mxCell>
        <mxCell id="kaCDGykt8sn5aObhG7ok-24" style="edgeStyle=none;rounded=0;orthogonalLoop=1;jettySize=auto;html=1;startArrow=none;startFill=0;endArrow=classic;endFill=1;entryX=0.589;entryY=0.05;entryDx=0;entryDy=0;entryPerimeter=0;" edge="1" parent="kaCDGykt8sn5aObhG7ok-1" source="kaCDGykt8sn5aObhG7ok-25" target="kaCDGykt8sn5aObhG7ok-60">
          <mxGeometry relative="1" as="geometry">
            <mxPoint x="220" y="650" as="targetPoint" />
          </mxGeometry>
        </mxCell>
        <mxCell id="kaCDGykt8sn5aObhG7ok-25" value="LOGIN" style="shape=providedRequiredInterface;html=1;verticalLabelPosition=bottom;sketch=0;fillStyle=solid;fillColor=none;rotation=0;" vertex="1" parent="kaCDGykt8sn5aObhG7ok-1">
          <mxGeometry x="281.63" y="280" width="20" height="20" as="geometry" />
        </mxCell>
        <mxCell id="kaCDGykt8sn5aObhG7ok-26" style="edgeStyle=none;rounded=0;orthogonalLoop=1;jettySize=auto;html=1;entryX=0.5;entryY=0;entryDx=0;entryDy=0;startArrow=none;startFill=0;endArrow=classic;endFill=1;" edge="1" parent="kaCDGykt8sn5aObhG7ok-1" source="kaCDGykt8sn5aObhG7ok-27" target="kaCDGykt8sn5aObhG7ok-55">
          <mxGeometry relative="1" as="geometry" />
        </mxCell>
        <mxCell id="kaCDGykt8sn5aObhG7ok-27" value="CATALOGO" style="shape=providedRequiredInterface;html=1;verticalLabelPosition=bottom;sketch=0;fillStyle=solid;fillColor=none;rotation=0;" vertex="1" parent="kaCDGykt8sn5aObhG7ok-1">
          <mxGeometry x="339" y="280" width="20" height="20" as="geometry" />
        </mxCell>
        <mxCell id="kaCDGykt8sn5aObhG7ok-28" style="rounded=0;orthogonalLoop=1;jettySize=auto;html=1;" edge="1" parent="kaCDGykt8sn5aObhG7ok-1" source="kaCDGykt8sn5aObhG7ok-31" target="kaCDGykt8sn5aObhG7ok-22">
          <mxGeometry relative="1" as="geometry" />
        </mxCell>
        <mxCell id="kaCDGykt8sn5aObhG7ok-29" style="edgeStyle=none;rounded=0;orthogonalLoop=1;jettySize=auto;html=1;" edge="1" parent="kaCDGykt8sn5aObhG7ok-1" source="kaCDGykt8sn5aObhG7ok-31" target="kaCDGykt8sn5aObhG7ok-25">
          <mxGeometry relative="1" as="geometry" />
        </mxCell>
        <mxCell id="kaCDGykt8sn5aObhG7ok-30" style="edgeStyle=none;rounded=0;orthogonalLoop=1;jettySize=auto;html=1;" edge="1" parent="kaCDGykt8sn5aObhG7ok-1" source="kaCDGykt8sn5aObhG7ok-31" target="kaCDGykt8sn5aObhG7ok-27">
          <mxGeometry relative="1" as="geometry" />
        </mxCell>
        <mxCell id="kaCDGykt8sn5aObhG7ok-31" value="PLPL" style="outlineConnect=0;dashed=0;verticalLabelPosition=bottom;verticalAlign=top;align=center;html=1;shape=mxgraph.aws3.direct_connect;fillColor=#F58536;gradientColor=none;fillStyle=solid;" vertex="1" parent="kaCDGykt8sn5aObhG7ok-1">
          <mxGeometry x="331.63" y="90" width="34.75" height="43.5" as="geometry" />
        </mxCell>
        <mxCell id="kaCDGykt8sn5aObhG7ok-32" style="edgeStyle=none;rounded=0;orthogonalLoop=1;jettySize=auto;html=1;entryX=0.653;entryY=0.073;entryDx=0;entryDy=0;entryPerimeter=0;" edge="1" parent="kaCDGykt8sn5aObhG7ok-1" source="kaCDGykt8sn5aObhG7ok-35" target="kaCDGykt8sn5aObhG7ok-25">
          <mxGeometry relative="1" as="geometry" />
        </mxCell>
        <mxCell id="kaCDGykt8sn5aObhG7ok-33" style="edgeStyle=none;rounded=0;orthogonalLoop=1;jettySize=auto;html=1;" edge="1" parent="kaCDGykt8sn5aObhG7ok-1" source="kaCDGykt8sn5aObhG7ok-35" target="kaCDGykt8sn5aObhG7ok-42">
          <mxGeometry relative="1" as="geometry" />
        </mxCell>
        <mxCell id="kaCDGykt8sn5aObhG7ok-34" style="edgeStyle=none;rounded=0;orthogonalLoop=1;jettySize=auto;html=1;entryX=0.821;entryY=0.073;entryDx=0;entryDy=0;entryPerimeter=0;" edge="1" parent="kaCDGykt8sn5aObhG7ok-1" source="kaCDGykt8sn5aObhG7ok-35" target="kaCDGykt8sn5aObhG7ok-44">
          <mxGeometry relative="1" as="geometry" />
        </mxCell>
        <mxCell id="kaCDGykt8sn5aObhG7ok-35" value="GDL" style="outlineConnect=0;dashed=0;verticalLabelPosition=bottom;verticalAlign=top;align=center;html=1;shape=mxgraph.aws3.service_catalog;fillColor=#759C3E;gradientColor=none;fillStyle=solid;" vertex="1" parent="kaCDGykt8sn5aObhG7ok-1">
          <mxGeometry x="215.63" y="85.13" width="41.75" height="53.25" as="geometry" />
        </mxCell>
        <mxCell id="kaCDGykt8sn5aObhG7ok-36" value="ISBN" style="outlineConnect=0;dashed=0;verticalLabelPosition=bottom;verticalAlign=top;align=center;html=1;shape=mxgraph.aws3.device_farm;fillColor=#AD688B;gradientColor=none;fillStyle=solid;" vertex="1" parent="kaCDGykt8sn5aObhG7ok-1">
          <mxGeometry x="25.510000000000005" y="590" width="50" height="45" as="geometry" />
        </mxCell>
        <mxCell id="kaCDGykt8sn5aObhG7ok-37" value="MAGNEWS" style="outlineConnect=0;dashed=0;verticalLabelPosition=bottom;verticalAlign=top;align=center;html=1;shape=mxgraph.aws3.snowball;fillColor=#E05243;gradientColor=none;fillStyle=solid;" vertex="1" parent="kaCDGykt8sn5aObhG7ok-1">
          <mxGeometry x="97" y="85.13" width="45.25" height="45.5" as="geometry" />
        </mxCell>
        <mxCell id="kaCDGykt8sn5aObhG7ok-38" style="edgeStyle=none;rounded=0;orthogonalLoop=1;jettySize=auto;html=1;entryX=1;entryY=0.5;entryDx=0;entryDy=0;entryPerimeter=0;" edge="1" parent="kaCDGykt8sn5aObhG7ok-1" source="kaCDGykt8sn5aObhG7ok-39" target="kaCDGykt8sn5aObhG7ok-64">
          <mxGeometry relative="1" as="geometry">
            <mxPoint x="620" y="630" as="targetPoint" />
          </mxGeometry>
        </mxCell>
        <mxCell id="kaCDGykt8sn5aObhG7ok-39" value="INFINITY" style="outlineConnect=0;dashed=0;verticalLabelPosition=bottom;verticalAlign=top;align=center;html=1;shape=mxgraph.aws3.opsworks;fillColor=#759C3E;gradientColor=none;fillStyle=solid;" vertex="1" parent="kaCDGykt8sn5aObhG7ok-1">
          <mxGeometry x="720" y="682.5" width="40" height="40" as="geometry" />
        </mxCell>
        <mxCell id="kaCDGykt8sn5aObhG7ok-40" style="edgeStyle=none;rounded=0;orthogonalLoop=1;jettySize=auto;html=1;entryX=0;entryY=0.5;entryDx=0;entryDy=0;" edge="1" parent="kaCDGykt8sn5aObhG7ok-1" source="kaCDGykt8sn5aObhG7ok-62" target="kaCDGykt8sn5aObhG7ok-10">
          <mxGeometry relative="1" as="geometry">
            <mxPoint x="218.74266666666676" y="672.5" as="sourcePoint" />
          </mxGeometry>
        </mxCell>
        <mxCell id="kaCDGykt8sn5aObhG7ok-41" style="edgeStyle=none;rounded=0;orthogonalLoop=1;jettySize=auto;html=1;startArrow=none;startFill=0;endArrow=classic;endFill=1;" edge="1" parent="kaCDGykt8sn5aObhG7ok-1" source="kaCDGykt8sn5aObhG7ok-42" target="kaCDGykt8sn5aObhG7ok-62">
          <mxGeometry relative="1" as="geometry" />
        </mxCell>
        <mxCell id="kaCDGykt8sn5aObhG7ok-42" value="FUORI&lt;br&gt;CATALOGO" style="shape=providedRequiredInterface;html=1;verticalLabelPosition=bottom;sketch=0;fillStyle=solid;fillColor=none;rotation=0;" vertex="1" parent="kaCDGykt8sn5aObhG7ok-1">
          <mxGeometry x="226.51" y="280" width="20" height="20" as="geometry" />
        </mxCell>
        <mxCell id="kaCDGykt8sn5aObhG7ok-43" style="edgeStyle=none;rounded=0;orthogonalLoop=1;jettySize=auto;html=1;startArrow=none;startFill=0;endArrow=classic;endFill=1;" edge="1" parent="kaCDGykt8sn5aObhG7ok-1" source="kaCDGykt8sn5aObhG7ok-44" target="kaCDGykt8sn5aObhG7ok-69">
          <mxGeometry relative="1" as="geometry" />
        </mxCell>
        <mxCell id="kaCDGykt8sn5aObhG7ok-44" value="NEWSLETTER" style="shape=providedRequiredInterface;html=1;verticalLabelPosition=bottom;sketch=0;fillStyle=solid;fillColor=none;rotation=0;" vertex="1" parent="kaCDGykt8sn5aObhG7ok-1">
          <mxGeometry x="153.25" y="280" width="20" height="20" as="geometry" />
        </mxCell>
        <mxCell id="kaCDGykt8sn5aObhG7ok-47" value="Banca Sella" style="outlineConnect=0;dashed=0;verticalLabelPosition=bottom;verticalAlign=top;align=center;html=1;shape=mxgraph.aws3.cart;fillColor=#5294CF;gradientColor=none;fillStyle=solid;" vertex="1" parent="kaCDGykt8sn5aObhG7ok-1">
          <mxGeometry x="10" y="90.69" width="50" height="42.12" as="geometry" />
        </mxCell>
        <mxCell id="kaCDGykt8sn5aObhG7ok-48" style="edgeStyle=none;rounded=0;orthogonalLoop=1;jettySize=auto;html=1;entryX=0.398;entryY=0.17;entryDx=0;entryDy=0;entryPerimeter=0;startArrow=none;startFill=0;endArrow=classic;endFill=1;" edge="1" parent="kaCDGykt8sn5aObhG7ok-1" source="kaCDGykt8sn5aObhG7ok-49" target="kaCDGykt8sn5aObhG7ok-60">
          <mxGeometry relative="1" as="geometry" />
        </mxCell>
        <mxCell id="kaCDGykt8sn5aObhG7ok-49" value="MEDRA" style="whiteSpace=wrap;html=1;fillStyle=solid;fillColor=none;labelPosition=center;verticalLabelPosition=bottom;align=center;verticalAlign=top;" vertex="1" parent="kaCDGykt8sn5aObhG7ok-1">
          <mxGeometry x="75.51" y="290" width="524.49" height="264.49" as="geometry" />
        </mxCell>
        <mxCell id="kaCDGykt8sn5aObhG7ok-50" style="edgeStyle=none;rounded=0;orthogonalLoop=1;jettySize=auto;html=1;exitX=0;exitY=0.5;exitDx=0;exitDy=0;exitPerimeter=0;" edge="1" parent="kaCDGykt8sn5aObhG7ok-1">
          <mxGeometry relative="1" as="geometry">
            <mxPoint x="206.51" y="662.5" as="sourcePoint" />
            <mxPoint x="206.51" y="662.5" as="targetPoint" />
          </mxGeometry>
        </mxCell>
        <mxCell id="kaCDGykt8sn5aObhG7ok-51" style="rounded=0;orthogonalLoop=1;jettySize=auto;html=1;entryX=1;entryY=0.5;entryDx=0;entryDy=0;entryPerimeter=0;exitX=0.5;exitY=1;exitDx=0;exitDy=0;" edge="1" parent="kaCDGykt8sn5aObhG7ok-1" source="kaCDGykt8sn5aObhG7ok-2" target="kaCDGykt8sn5aObhG7ok-57">
          <mxGeometry relative="1" as="geometry" />
        </mxCell>
        <mxCell id="kaCDGykt8sn5aObhG7ok-52" style="rounded=0;orthogonalLoop=1;jettySize=auto;html=1;exitX=0.5;exitY=1;exitDx=0;exitDy=0;" edge="1" parent="kaCDGykt8sn5aObhG7ok-1" source="kaCDGykt8sn5aObhG7ok-55" target="kaCDGykt8sn5aObhG7ok-53">
          <mxGeometry relative="1" as="geometry" />
        </mxCell>
        <mxCell id="kaCDGykt8sn5aObhG7ok-53" value="AIE" style="shape=providedRequiredInterface;html=1;verticalLabelPosition=bottom;sketch=0;fillStyle=solid;fillColor=none;rotation=0;" vertex="1" parent="kaCDGykt8sn5aObhG7ok-1">
          <mxGeometry x="400" y="650" width="20" height="20" as="geometry" />
        </mxCell>
        <mxCell id="kaCDGykt8sn5aObhG7ok-54" style="edgeStyle=none;rounded=0;orthogonalLoop=1;jettySize=auto;html=1;startArrow=classic;startFill=1;endArrow=none;endFill=0;" edge="1" parent="kaCDGykt8sn5aObhG7ok-1" source="kaCDGykt8sn5aObhG7ok-55" target="kaCDGykt8sn5aObhG7ok-57">
          <mxGeometry relative="1" as="geometry" />
        </mxCell>
        <mxCell id="kaCDGykt8sn5aObhG7ok-55" value="" style="shape=datastore;whiteSpace=wrap;html=1;fillStyle=solid;fillColor=none;" vertex="1" parent="kaCDGykt8sn5aObhG7ok-1">
          <mxGeometry x="301.63" y="400" width="30" height="40" as="geometry" />
        </mxCell>
        <mxCell id="kaCDGykt8sn5aObhG7ok-56" style="edgeStyle=none;rounded=0;orthogonalLoop=1;jettySize=auto;html=1;startArrow=classic;startFill=1;endArrow=none;endFill=0;exitX=1;exitY=0.5;exitDx=0;exitDy=0;entryX=0;entryY=0.5;entryDx=0;entryDy=0;entryPerimeter=0;" edge="1" parent="kaCDGykt8sn5aObhG7ok-1" target="kaCDGykt8sn5aObhG7ok-57">
          <mxGeometry relative="1" as="geometry">
            <mxPoint x="560" y="355" as="sourcePoint" />
            <mxPoint x="740" y="320" as="targetPoint" />
          </mxGeometry>
        </mxCell>
        <mxCell id="kaCDGykt8sn5aObhG7ok-57" value="AIE" style="shape=providedRequiredInterface;html=1;verticalLabelPosition=bottom;sketch=0;fillStyle=solid;fillColor=none;rotation=0;" vertex="1" parent="kaCDGykt8sn5aObhG7ok-1">
          <mxGeometry x="590" y="412.25" width="20" height="20" as="geometry" />
        </mxCell>
        <mxCell id="kaCDGykt8sn5aObhG7ok-58" value="SINCRONIZZAZIONE" style="shape=providedRequiredInterface;html=1;verticalLabelPosition=bottom;sketch=0;fillStyle=solid;fillColor=none;rotation=0;" vertex="1" parent="kaCDGykt8sn5aObhG7ok-1">
          <mxGeometry x="319" y="650" width="20" height="20" as="geometry" />
        </mxCell>
        <mxCell id="kaCDGykt8sn5aObhG7ok-59" style="rounded=0;orthogonalLoop=1;jettySize=auto;html=1;exitX=0.5;exitY=1;exitDx=0;exitDy=0;entryX=0.358;entryY=0.01;entryDx=0;entryDy=0;entryPerimeter=0;" edge="1" parent="kaCDGykt8sn5aObhG7ok-1" source="kaCDGykt8sn5aObhG7ok-55" target="kaCDGykt8sn5aObhG7ok-58">
          <mxGeometry relative="1" as="geometry">
            <mxPoint x="240.0000000000001" y="440" as="sourcePoint" />
            <mxPoint x="329.1259090909092" y="650" as="targetPoint" />
          </mxGeometry>
        </mxCell>
        <mxCell id="kaCDGykt8sn5aObhG7ok-60" value="LOGIN" style="shape=providedRequiredInterface;html=1;verticalLabelPosition=bottom;sketch=0;fillStyle=solid;fillColor=none;rotation=0;" vertex="1" parent="kaCDGykt8sn5aObhG7ok-1">
          <mxGeometry x="224.63" y="650" width="20" height="20" as="geometry" />
        </mxCell>
        <mxCell id="kaCDGykt8sn5aObhG7ok-61" value="ACCREDITO" style="shape=providedRequiredInterface;html=1;verticalLabelPosition=bottom;sketch=0;fillStyle=solid;fillColor=none;rotation=0;" vertex="1" parent="kaCDGykt8sn5aObhG7ok-1">
          <mxGeometry x="475" y="650" width="20" height="20" as="geometry" />
        </mxCell>
        <mxCell id="kaCDGykt8sn5aObhG7ok-62" value="FUORI&lt;br&gt;CATALOGO" style="shape=providedRequiredInterface;html=1;verticalLabelPosition=bottom;sketch=0;fillStyle=solid;fillColor=none;rotation=0;" vertex="1" parent="kaCDGykt8sn5aObhG7ok-1">
          <mxGeometry x="160.25" y="650" width="20" height="20" as="geometry" />
        </mxCell>
        <mxCell id="kaCDGykt8sn5aObhG7ok-63" style="rounded=0;orthogonalLoop=1;jettySize=auto;html=1;startArrow=none;startFill=0;endArrow=classic;endFill=1;" edge="1" parent="kaCDGykt8sn5aObhG7ok-1" source="kaCDGykt8sn5aObhG7ok-64" target="uNzZQP2M1dLK-WzPa6DE-0">
          <mxGeometry relative="1" as="geometry" />
        </mxCell>
        <mxCell id="kaCDGykt8sn5aObhG7ok-64" value="WS &lt;br&gt;ORDINE" style="shape=providedRequiredInterface;html=1;verticalLabelPosition=top;sketch=0;fillStyle=solid;fillColor=none;rotation=0;labelPosition=center;align=center;verticalAlign=bottom;" vertex="1" parent="kaCDGykt8sn5aObhG7ok-1">
          <mxGeometry x="590" y="510" width="20" height="20" as="geometry" />
        </mxCell>
        <mxCell id="kaCDGykt8sn5aObhG7ok-65" style="rounded=0;orthogonalLoop=1;jettySize=auto;html=1;entryX=0;entryY=0.5;entryDx=0;entryDy=0;entryPerimeter=0;" edge="1" parent="kaCDGykt8sn5aObhG7ok-1" target="kaCDGykt8sn5aObhG7ok-39" source="uNzZQP2M1dLK-WzPa6DE-0">
          <mxGeometry relative="1" as="geometry">
            <mxPoint x="186.20833333333326" y="962.5" as="sourcePoint" />
            <mxPoint x="132.765625" y="1040" as="targetPoint" />
          </mxGeometry>
        </mxCell>
        <mxCell id="kaCDGykt8sn5aObhG7ok-66" value="Avvenuto &lt;br&gt;Pagamento" style="edgeLabel;html=1;align=center;verticalAlign=middle;resizable=0;points=[];" vertex="1" connectable="0" parent="kaCDGykt8sn5aObhG7ok-65">
          <mxGeometry x="0.2353" relative="1" as="geometry">
            <mxPoint as="offset" />
          </mxGeometry>
        </mxCell>
        <mxCell id="kaCDGykt8sn5aObhG7ok-67" value="" style="shape=image;html=1;verticalAlign=top;verticalLabelPosition=bottom;labelBackgroundColor=#ffffff;imageAspect=0;aspect=fixed;image=https://cdn3.iconfinder.com/data/icons/internet-and-web-4/78/internt_web_technology-16-128.png;fillStyle=solid;fillColor=none;" vertex="1" parent="kaCDGykt8sn5aObhG7ok-1">
          <mxGeometry x="530" y="340" width="30" height="30" as="geometry" />
        </mxCell>
        <mxCell id="kaCDGykt8sn5aObhG7ok-68" value="" style="shape=image;html=1;verticalAlign=top;verticalLabelPosition=bottom;labelBackgroundColor=#ffffff;imageAspect=0;aspect=fixed;image=https://cdn3.iconfinder.com/data/icons/internet-and-web-4/78/internt_web_technology-16-128.png;fillStyle=solid;fillColor=none;" vertex="1" parent="kaCDGykt8sn5aObhG7ok-1">
          <mxGeometry x="530" y="460" width="30" height="30" as="geometry" />
        </mxCell>
        <mxCell id="kaCDGykt8sn5aObhG7ok-69" value="NEWS" style="shape=image;html=1;verticalAlign=top;verticalLabelPosition=bottom;labelBackgroundColor=#ffffff;imageAspect=0;aspect=fixed;image=https://cdn3.iconfinder.com/data/icons/internet-and-web-4/78/internt_web_technology-16-128.png;fillStyle=solid;fillColor=none;" vertex="1" parent="kaCDGykt8sn5aObhG7ok-1">
          <mxGeometry x="155.25" y="380" width="30" height="30" as="geometry" />
        </mxCell>
        <mxCell id="uNzZQP2M1dLK-WzPa6DE-0" value="ECOMMERCE" style="shape=image;html=1;verticalAlign=top;verticalLabelPosition=bottom;labelBackgroundColor=#ffffff;imageAspect=0;aspect=fixed;image=https://cdn3.iconfinder.com/data/icons/internet-and-web-4/78/internt_web_technology-16-128.png;fillStyle=solid;fillColor=none;" vertex="1" parent="kaCDGykt8sn5aObhG7ok-1">
          <mxGeometry x="130.25" y="460" width="30" height="30" as="geometry" />
        </mxCell>
      </root>
    </mxGraphModel>
  </diagram>
</mxfile>
